<svg width="30" height="125" viewBox="0 0 30 125" fill="none" xmlns="http://www.w3.org/2000/svg">
<path fill-rule="evenodd" clip-rule="evenodd" d="M2 0C0.895431 0 0 0.89543 0 2V28C0 29.1046 0.895431 30 2 30C3.10457 30 4 29.1046 4 28V4H28C29.1046 4 30 3.10457 30 2C30 0.895431 29.1046 0 28 0H2Z" fill="#F9F9F9"/>
<path fill-rule="evenodd" clip-rule="evenodd" d="M0 123C0 124.105 0.89543 125 2 125H28C29.1046 125 30 124.105 30 123C30 121.895 29.1046 121 28 121H4L4 96.9999C4 95.8954 3.10457 94.9999 2 94.9999C0.895431 94.9999 0 95.8954 0 96.9999L0 123Z" fill="#F9F9F9"/>
</svg>
