<svg width="180" height="180" viewBox="0 0 180 180" fill="none" xmlns="http://www.w3.org/2000/svg">
<g id="Camera with flash">
<g id="Rectangle 877">
<path d="M118.477 65.4258C118.477 63.5618 119.988 62.0508 121.852 62.0508H148.28C150.144 62.0508 151.655 63.5618 151.655 65.4258V71.543H118.477V65.4258Z" fill="url(#paint0_linear_54_141)"/>
<path d="M118.477 65.4258C118.477 63.5618 119.988 62.0508 121.852 62.0508H148.28C150.144 62.0508 151.655 63.5618 151.655 65.4258V71.543H118.477V65.4258Z" fill="url(#paint1_radial_54_141)"/>
</g>
<g id="Rectangle 878">
<path d="M28.5645 65.1445C28.5645 63.4359 29.9496 62.0508 31.6582 62.0508H47.7949C49.5036 62.0508 50.8887 63.4359 50.8887 65.1445V71.543H28.5645V65.1445Z" fill="url(#paint2_linear_54_141)"/>
<path d="M28.5645 65.1445C28.5645 63.4359 29.9496 62.0508 31.6582 62.0508H47.7949C49.5036 62.0508 50.8887 63.4359 50.8887 65.1445V71.543H28.5645V65.1445Z" fill="url(#paint3_radial_54_141)"/>
</g>
<g id="Rectangle 874">
<path d="M11.4258 78.8818C11.4258 72.6686 16.4626 67.6318 22.6758 67.6318H157.324C163.537 67.6318 168.574 72.6686 168.574 78.8818V88.2422C168.574 89.0188 167.945 89.6484 167.168 89.6484H12.832C12.0554 89.6484 11.4258 89.0188 11.4258 88.2422V78.8818Z" fill="#DAD4E6"/>
<path d="M11.4258 78.8818C11.4258 72.6686 16.4626 67.6318 22.6758 67.6318H157.324C163.537 67.6318 168.574 72.6686 168.574 78.8818V88.2422C168.574 89.0188 167.945 89.6484 167.168 89.6484H12.832C12.0554 89.6484 11.4258 89.0188 11.4258 88.2422V78.8818Z" fill="url(#paint4_linear_54_141)"/>
<path d="M11.4258 78.8818C11.4258 72.6686 16.4626 67.6318 22.6758 67.6318H157.324C163.537 67.6318 168.574 72.6686 168.574 78.8818V88.2422C168.574 89.0188 167.945 89.6484 167.168 89.6484H12.832C12.0554 89.6484 11.4258 89.0188 11.4258 88.2422V78.8818Z" fill="url(#paint5_linear_54_141)"/>
<path d="M11.4258 78.8818C11.4258 72.6686 16.4626 67.6318 22.6758 67.6318H157.324C163.537 67.6318 168.574 72.6686 168.574 78.8818V88.2422C168.574 89.0188 167.945 89.6484 167.168 89.6484H12.832C12.0554 89.6484 11.4258 89.0188 11.4258 88.2422V78.8818Z" fill="url(#paint6_linear_54_141)"/>
<path d="M11.4258 78.8818C11.4258 72.6686 16.4626 67.6318 22.6758 67.6318H157.324C163.537 67.6318 168.574 72.6686 168.574 78.8818V88.2422C168.574 89.0188 167.945 89.6484 167.168 89.6484H12.832C12.0554 89.6484 11.4258 89.0188 11.4258 88.2422V78.8818Z" fill="url(#paint7_radial_54_141)"/>
<path d="M11.4258 78.8818C11.4258 72.6686 16.4626 67.6318 22.6758 67.6318H157.324C163.537 67.6318 168.574 72.6686 168.574 78.8818V88.2422C168.574 89.0188 167.945 89.6484 167.168 89.6484H12.832C12.0554 89.6484 11.4258 89.0188 11.4258 88.2422V78.8818Z" fill="url(#paint8_linear_54_141)"/>
<path d="M11.4258 78.8818C11.4258 72.6686 16.4626 67.6318 22.6758 67.6318H157.324C163.537 67.6318 168.574 72.6686 168.574 78.8818V88.2422C168.574 89.0188 167.945 89.6484 167.168 89.6484H12.832C12.0554 89.6484 11.4258 89.0188 11.4258 88.2422V78.8818Z" fill="url(#paint9_linear_54_141)"/>
<path d="M11.4258 78.8818C11.4258 72.6686 16.4626 67.6318 22.6758 67.6318H157.324C163.537 67.6318 168.574 72.6686 168.574 78.8818V88.2422C168.574 89.0188 167.945 89.6484 167.168 89.6484H12.832C12.0554 89.6484 11.4258 89.0188 11.4258 88.2422V78.8818Z" fill="url(#paint10_linear_54_141)"/>
<path d="M11.4258 78.8818C11.4258 72.6686 16.4626 67.6318 22.6758 67.6318H157.324C163.537 67.6318 168.574 72.6686 168.574 78.8818V88.2422C168.574 89.0188 167.945 89.6484 167.168 89.6484H12.832C12.0554 89.6484 11.4258 89.0188 11.4258 88.2422V78.8818Z" fill="url(#paint11_radial_54_141)"/>
<path d="M11.4258 78.8818C11.4258 72.6686 16.4626 67.6318 22.6758 67.6318H157.324C163.537 67.6318 168.574 72.6686 168.574 78.8818V88.2422C168.574 89.0188 167.945 89.6484 167.168 89.6484H12.832C12.0554 89.6484 11.4258 89.0188 11.4258 88.2422V78.8818Z" fill="url(#paint12_radial_54_141)"/>
<path d="M11.4258 78.8818C11.4258 72.6686 16.4626 67.6318 22.6758 67.6318H157.324C163.537 67.6318 168.574 72.6686 168.574 78.8818V88.2422C168.574 89.0188 167.945 89.6484 167.168 89.6484H12.832C12.0554 89.6484 11.4258 89.0188 11.4258 88.2422V78.8818Z" fill="url(#paint13_radial_54_141)"/>
<path d="M11.4258 78.8818C11.4258 72.6686 16.4626 67.6318 22.6758 67.6318H157.324C163.537 67.6318 168.574 72.6686 168.574 78.8818V88.2422C168.574 89.0188 167.945 89.6484 167.168 89.6484H12.832C12.0554 89.6484 11.4258 89.0188 11.4258 88.2422V78.8818Z" fill="url(#paint14_radial_54_141)"/>
<path d="M11.4258 78.8818C11.4258 72.6686 16.4626 67.6318 22.6758 67.6318H157.324C163.537 67.6318 168.574 72.6686 168.574 78.8818V88.2422C168.574 89.0188 167.945 89.6484 167.168 89.6484H12.832C12.0554 89.6484 11.4258 89.0188 11.4258 88.2422V78.8818Z" fill="url(#paint15_radial_54_141)"/>
</g>
<g id="Rectangle 875">
<path d="M11.4258 158.294C11.4258 163.777 15.871 168.223 21.3544 168.223H158.646C164.129 168.223 168.574 163.777 168.574 158.294C168.574 158.098 168.415 157.939 168.22 157.939H11.7804C11.5845 157.939 11.4258 158.098 11.4258 158.294Z" fill="url(#paint16_linear_54_141)"/>
<path d="M11.4258 158.294C11.4258 163.777 15.871 168.223 21.3544 168.223H158.646C164.129 168.223 168.574 163.777 168.574 158.294C168.574 158.098 168.415 157.939 168.22 157.939H11.7804C11.5845 157.939 11.4258 158.098 11.4258 158.294Z" fill="url(#paint17_linear_54_141)"/>
<path d="M11.4258 158.294C11.4258 163.777 15.871 168.223 21.3544 168.223H158.646C164.129 168.223 168.574 163.777 168.574 158.294C168.574 158.098 168.415 157.939 168.22 157.939H11.7804C11.5845 157.939 11.4258 158.098 11.4258 158.294Z" fill="url(#paint18_linear_54_141)"/>
<path d="M11.4258 158.294C11.4258 163.777 15.871 168.223 21.3544 168.223H158.646C164.129 168.223 168.574 163.777 168.574 158.294C168.574 158.098 168.415 157.939 168.22 157.939H11.7804C11.5845 157.939 11.4258 158.098 11.4258 158.294Z" fill="url(#paint19_radial_54_141)"/>
<path d="M11.4258 158.294C11.4258 163.777 15.871 168.223 21.3544 168.223H158.646C164.129 168.223 168.574 163.777 168.574 158.294C168.574 158.098 168.415 157.939 168.22 157.939H11.7804C11.5845 157.939 11.4258 158.098 11.4258 158.294Z" fill="url(#paint20_radial_54_141)"/>
</g>
<g id="Rectangle 876">
<path d="M11.4258 91.0547C11.4258 90.278 12.0554 89.6484 12.832 89.6484H167.168C167.945 89.6484 168.574 90.278 168.574 91.0547V156.533C168.574 157.31 167.945 157.939 167.168 157.939H12.832C12.0554 157.939 11.4258 157.31 11.4258 156.533V91.0547Z" fill="url(#paint21_linear_54_141)"/>
<path d="M11.4258 91.0547C11.4258 90.278 12.0554 89.6484 12.832 89.6484H167.168C167.945 89.6484 168.574 90.278 168.574 91.0547V156.533C168.574 157.31 167.945 157.939 167.168 157.939H12.832C12.0554 157.939 11.4258 157.31 11.4258 156.533V91.0547Z" fill="url(#paint22_linear_54_141)"/>
<path d="M11.4258 91.0547C11.4258 90.278 12.0554 89.6484 12.832 89.6484H167.168C167.945 89.6484 168.574 90.278 168.574 91.0547V156.533C168.574 157.31 167.945 157.939 167.168 157.939H12.832C12.0554 157.939 11.4258 157.31 11.4258 156.533V91.0547Z" fill="url(#paint23_linear_54_141)"/>
<path d="M11.4258 91.0547C11.4258 90.278 12.0554 89.6484 12.832 89.6484H167.168C167.945 89.6484 168.574 90.278 168.574 91.0547V156.533C168.574 157.31 167.945 157.939 167.168 157.939H12.832C12.0554 157.939 11.4258 157.31 11.4258 156.533V91.0547Z" fill="url(#paint24_linear_54_141)"/>
<path d="M11.4258 91.0547C11.4258 90.278 12.0554 89.6484 12.832 89.6484H167.168C167.945 89.6484 168.574 90.278 168.574 91.0547V156.533C168.574 157.31 167.945 157.939 167.168 157.939H12.832C12.0554 157.939 11.4258 157.31 11.4258 156.533V91.0547Z" fill="url(#paint25_radial_54_141)"/>
<path d="M11.4258 91.0547C11.4258 90.278 12.0554 89.6484 12.832 89.6484H167.168C167.945 89.6484 168.574 90.278 168.574 91.0547V156.533C168.574 157.31 167.945 157.939 167.168 157.939H12.832C12.0554 157.939 11.4258 157.31 11.4258 156.533V91.0547Z" fill="url(#paint26_linear_54_141)"/>
<path d="M11.4258 91.0547C11.4258 90.278 12.0554 89.6484 12.832 89.6484H167.168C167.945 89.6484 168.574 90.278 168.574 91.0547V156.533C168.574 157.31 167.945 157.939 167.168 157.939H12.832C12.0554 157.939 11.4258 157.31 11.4258 156.533V91.0547Z" fill="url(#paint27_linear_54_141)"/>
<path d="M11.4258 91.0547C11.4258 90.278 12.0554 89.6484 12.832 89.6484H167.168C167.945 89.6484 168.574 90.278 168.574 91.0547V156.533C168.574 157.31 167.945 157.939 167.168 157.939H12.832C12.0554 157.939 11.4258 157.31 11.4258 156.533V91.0547Z" fill="url(#paint28_linear_54_141)"/>
<path d="M11.4258 91.0547C11.4258 90.278 12.0554 89.6484 12.832 89.6484H167.168C167.945 89.6484 168.574 90.278 168.574 91.0547V156.533C168.574 157.31 167.945 157.939 167.168 157.939H12.832C12.0554 157.939 11.4258 157.31 11.4258 156.533V91.0547Z" fill="url(#paint29_radial_54_141)"/>
</g>
<g id="Ellipse 226">
<circle cx="90" cy="123.618" r="39.4629" fill="url(#paint30_radial_54_141)"/>
<circle cx="90" cy="123.618" r="39.4629" fill="url(#paint31_radial_54_141)"/>
<circle cx="90" cy="123.618" r="39.4629" fill="url(#paint32_radial_54_141)"/>
<circle cx="90" cy="123.618" r="39.4629" fill="url(#paint33_radial_54_141)"/>
<circle cx="90" cy="123.618" r="39.4629" fill="url(#paint34_radial_54_141)"/>
</g>
<g id="Ellipse 217">
<circle cx="90" cy="123.618" r="27.9492" fill="url(#paint35_radial_54_141)"/>
<circle cx="90" cy="123.618" r="27.9492" fill="url(#paint36_radial_54_141)"/>
</g>
<g id="Ellipse 218">
<circle cx="90" cy="123.618" r="13.7988" fill="url(#paint37_linear_54_141)"/>
<circle cx="90" cy="123.618" r="13.7988" fill="url(#paint38_radial_54_141)"/>
<circle cx="90" cy="123.618" r="13.7988" fill="url(#paint39_radial_54_141)"/>
</g>
<ellipse id="Ellipse 219" cx="101.453" cy="112.413" rx="4.70539" ry="5.86315" transform="rotate(-34.9736 101.453 112.413)" fill="url(#paint40_linear_54_141)"/>
<g id="Union">
<path d="M45.5713 39.4189C48.1337 39.4189 50.3428 40.9314 51.3546 43.1122L51.416 43.1104C56.0303 52.8882 62.4023 58.1616 69.2358 61.04L69.2367 61.0529C71.475 62.0414 73.0371 64.2807 73.0371 66.8848C73.0371 69.4889 71.475 71.7281 69.2367 72.7166L69.2358 72.7295C62.4023 75.6079 56.0303 80.8813 51.416 90.6592C50.6394 92.3048 48.8232 94.3506 45.5713 94.3506C43.0094 94.3506 40.8006 92.8388 39.7885 90.6586L39.7705 90.6592C35.2213 81.0192 28.9639 75.7576 22.2398 72.8528C19.8245 71.9468 18.1055 69.6165 18.1055 66.8848C18.1055 64.153 19.8245 61.8227 22.2398 60.9167C28.9639 58.0119 35.2213 52.7503 39.7705 43.1104L39.7885 43.1109C40.8006 40.9308 43.0094 39.4189 45.5713 39.4189Z" fill="url(#paint41_radial_54_141)"/>
<path d="M45.5713 39.4189C48.1337 39.4189 50.3428 40.9314 51.3546 43.1122L51.416 43.1104C56.0303 52.8882 62.4023 58.1616 69.2358 61.04L69.2367 61.0529C71.475 62.0414 73.0371 64.2807 73.0371 66.8848C73.0371 69.4889 71.475 71.7281 69.2367 72.7166L69.2358 72.7295C62.4023 75.6079 56.0303 80.8813 51.416 90.6592C50.6394 92.3048 48.8232 94.3506 45.5713 94.3506C43.0094 94.3506 40.8006 92.8388 39.7885 90.6586L39.7705 90.6592C35.2213 81.0192 28.9639 75.7576 22.2398 72.8528C19.8245 71.9468 18.1055 69.6165 18.1055 66.8848C18.1055 64.153 19.8245 61.8227 22.2398 60.9167C28.9639 58.0119 35.2213 52.7503 39.7705 43.1104L39.7885 43.1109C40.8006 40.9308 43.0094 39.4189 45.5713 39.4189Z" fill="url(#paint42_radial_54_141)"/>
<path d="M45.5713 39.4189C48.1337 39.4189 50.3428 40.9314 51.3546 43.1122L51.416 43.1104C56.0303 52.8882 62.4023 58.1616 69.2358 61.04L69.2367 61.0529C71.475 62.0414 73.0371 64.2807 73.0371 66.8848C73.0371 69.4889 71.475 71.7281 69.2367 72.7166L69.2358 72.7295C62.4023 75.6079 56.0303 80.8813 51.416 90.6592C50.6394 92.3048 48.8232 94.3506 45.5713 94.3506C43.0094 94.3506 40.8006 92.8388 39.7885 90.6586L39.7705 90.6592C35.2213 81.0192 28.9639 75.7576 22.2398 72.8528C19.8245 71.9468 18.1055 69.6165 18.1055 66.8848C18.1055 64.153 19.8245 61.8227 22.2398 60.9167C28.9639 58.0119 35.2213 52.7503 39.7705 43.1104L39.7885 43.1109C40.8006 40.9308 43.0094 39.4189 45.5713 39.4189Z" fill="url(#paint43_radial_54_141)"/>
<path d="M45.5713 39.4189C48.1337 39.4189 50.3428 40.9314 51.3546 43.1122L51.416 43.1104C56.0303 52.8882 62.4023 58.1616 69.2358 61.04L69.2367 61.0529C71.475 62.0414 73.0371 64.2807 73.0371 66.8848C73.0371 69.4889 71.475 71.7281 69.2367 72.7166L69.2358 72.7295C62.4023 75.6079 56.0303 80.8813 51.416 90.6592C50.6394 92.3048 48.8232 94.3506 45.5713 94.3506C43.0094 94.3506 40.8006 92.8388 39.7885 90.6586L39.7705 90.6592C35.2213 81.0192 28.9639 75.7576 22.2398 72.8528C19.8245 71.9468 18.1055 69.6165 18.1055 66.8848C18.1055 64.153 19.8245 61.8227 22.2398 60.9167C28.9639 58.0119 35.2213 52.7503 39.7705 43.1104L39.7885 43.1109C40.8006 40.9308 43.0094 39.4189 45.5713 39.4189Z" fill="url(#paint44_radial_54_141)"/>
<path d="M45.5713 39.4189C48.1337 39.4189 50.3428 40.9314 51.3546 43.1122L51.416 43.1104C56.0303 52.8882 62.4023 58.1616 69.2358 61.04L69.2367 61.0529C71.475 62.0414 73.0371 64.2807 73.0371 66.8848C73.0371 69.4889 71.475 71.7281 69.2367 72.7166L69.2358 72.7295C62.4023 75.6079 56.0303 80.8813 51.416 90.6592C50.6394 92.3048 48.8232 94.3506 45.5713 94.3506C43.0094 94.3506 40.8006 92.8388 39.7885 90.6586L39.7705 90.6592C35.2213 81.0192 28.9639 75.7576 22.2398 72.8528C19.8245 71.9468 18.1055 69.6165 18.1055 66.8848C18.1055 64.153 19.8245 61.8227 22.2398 60.9167C28.9639 58.0119 35.2213 52.7503 39.7705 43.1104L39.7885 43.1109C40.8006 40.9308 43.0094 39.4189 45.5713 39.4189Z" fill="url(#paint45_radial_54_141)"/>
<path d="M45.5713 39.4189C48.1337 39.4189 50.3428 40.9314 51.3546 43.1122L51.416 43.1104C56.0303 52.8882 62.4023 58.1616 69.2358 61.04L69.2367 61.0529C71.475 62.0414 73.0371 64.2807 73.0371 66.8848C73.0371 69.4889 71.475 71.7281 69.2367 72.7166L69.2358 72.7295C62.4023 75.6079 56.0303 80.8813 51.416 90.6592C50.6394 92.3048 48.8232 94.3506 45.5713 94.3506C43.0094 94.3506 40.8006 92.8388 39.7885 90.6586L39.7705 90.6592C35.2213 81.0192 28.9639 75.7576 22.2398 72.8528C19.8245 71.9468 18.1055 69.6165 18.1055 66.8848C18.1055 64.153 19.8245 61.8227 22.2398 60.9167C28.9639 58.0119 35.2213 52.7503 39.7705 43.1104L39.7885 43.1109C40.8006 40.9308 43.0094 39.4189 45.5713 39.4189Z" fill="url(#paint46_radial_54_141)"/>
</g>
</g>
<defs>
<linearGradient id="paint0_linear_54_141" x1="120.41" y1="66.7969" x2="154.336" y2="66.7969" gradientUnits="userSpaceOnUse">
<stop offset="0.196906" stop-color="#949597"/>
<stop offset="0.624473" stop-color="#C1C2C4"/>
</linearGradient>
<radialGradient id="paint1_radial_54_141" cx="0" cy="0" r="1" gradientUnits="userSpaceOnUse" gradientTransform="translate(143.086 64.5117) rotate(90) scale(1.23047 9.49219)">
<stop stop-color="#CFD0D2"/>
<stop offset="1" stop-color="#CFD0D2" stop-opacity="0"/>
</radialGradient>
<linearGradient id="paint2_linear_54_141" x1="29.8655" y1="66.7969" x2="52.6923" y2="66.7969" gradientUnits="userSpaceOnUse">
<stop offset="0.196906" stop-color="#949597"/>
<stop offset="0.624473" stop-color="#C1C2C4"/>
</linearGradient>
<radialGradient id="paint3_radial_54_141" cx="0" cy="0" r="1" gradientUnits="userSpaceOnUse" gradientTransform="translate(45.1228 64.5117) rotate(90) scale(1.23047 6.3868)">
<stop stop-color="#CFD0D2"/>
<stop offset="1" stop-color="#CFD0D2" stop-opacity="0"/>
</radialGradient>
<linearGradient id="paint4_linear_54_141" x1="90" y1="67.6318" x2="90" y2="76.8164" gradientUnits="userSpaceOnUse">
<stop stop-color="#D8D8DC"/>
<stop offset="1" stop-color="#D8D8DC" stop-opacity="0"/>
</linearGradient>
<linearGradient id="paint5_linear_54_141" x1="11.4258" y1="86.3086" x2="20.2148" y2="86.3086" gradientUnits="userSpaceOnUse">
<stop offset="0.22" stop-color="#C6C3CC"/>
<stop offset="1" stop-color="#C6C3CC" stop-opacity="0"/>
</linearGradient>
<linearGradient id="paint6_linear_54_141" x1="168.574" y1="87.7149" x2="154.16" y2="87.7149" gradientUnits="userSpaceOnUse">
<stop offset="0.15" stop-color="#F9F7FE"/>
<stop offset="1" stop-color="#D3CDDD" stop-opacity="0"/>
</linearGradient>
<radialGradient id="paint7_radial_54_141" cx="0" cy="0" r="1" gradientUnits="userSpaceOnUse" gradientTransform="translate(168.574 71.8945) rotate(135.463) scale(9.61772 11.6774)">
<stop offset="0.15" stop-color="#F9F7FE"/>
<stop offset="1" stop-color="#F9F7FE" stop-opacity="0"/>
</radialGradient>
<linearGradient id="paint8_linear_54_141" x1="99.1406" y1="89.6484" x2="99.1406" y2="87.7148" gradientUnits="userSpaceOnUse">
<stop stop-color="#B6ADC6"/>
<stop offset="1" stop-color="#B6ADC6" stop-opacity="0"/>
</linearGradient>
<linearGradient id="paint9_linear_54_141" x1="90" y1="67.6318" x2="90" y2="69.264" gradientUnits="userSpaceOnUse">
<stop stop-color="#CBCCCD"/>
<stop offset="0.646187" stop-color="#CBCCCD" stop-opacity="0.27304"/>
<stop offset="1" stop-color="#CBCCCD" stop-opacity="0"/>
</linearGradient>
<linearGradient id="paint10_linear_54_141" x1="169.672" y1="81.5619" x2="166.647" y2="81.5619" gradientUnits="userSpaceOnUse">
<stop stop-color="#CBCCCD"/>
<stop offset="0.791559" stop-color="#CBCCCD" stop-opacity="0.143048"/>
<stop offset="1" stop-color="#CBCCCD" stop-opacity="0"/>
</linearGradient>
<radialGradient id="paint11_radial_54_141" cx="0" cy="0" r="1" gradientUnits="userSpaceOnUse" gradientTransform="translate(168.27 70.9067) rotate(144.225) scale(5.95722 42.521)">
<stop offset="0.162017" stop-color="#CBCCCD"/>
<stop offset="0.713456" stop-color="#CBCCCD" stop-opacity="0.143048"/>
<stop offset="1" stop-color="#CBCCCD" stop-opacity="0"/>
</radialGradient>
<radialGradient id="paint12_radial_54_141" cx="0" cy="0" r="1" gradientUnits="userSpaceOnUse" gradientTransform="translate(165.617 68.0009) rotate(123.453) scale(5.04447 36.0061)">
<stop offset="0.394783" stop-color="#CBCCCD"/>
<stop offset="0.742064" stop-color="#CBCCCD" stop-opacity="0.143048"/>
<stop offset="1" stop-color="#CBCCCD" stop-opacity="0"/>
</radialGradient>
<radialGradient id="paint13_radial_54_141" cx="0" cy="0" r="1" gradientUnits="userSpaceOnUse" gradientTransform="translate(27.5171 73.553) rotate(108.011) scale(8.97913 12.9215)">
<stop offset="0.232296" stop-color="#A99A99"/>
<stop offset="0.836792" stop-color="#A99A99" stop-opacity="0.103547"/>
<stop offset="1" stop-color="#A99A99" stop-opacity="0"/>
</radialGradient>
<radialGradient id="paint14_radial_54_141" cx="0" cy="0" r="1" gradientUnits="userSpaceOnUse" gradientTransform="translate(33.368 79.1709) rotate(139.751) scale(7.91857 17.0055)">
<stop offset="0.154474" stop-color="#A99A99"/>
<stop offset="0.836792" stop-color="#A99A99" stop-opacity="0.103547"/>
<stop offset="1" stop-color="#A99A99" stop-opacity="0"/>
</radialGradient>
<radialGradient id="paint15_radial_54_141" cx="0" cy="0" r="1" gradientUnits="userSpaceOnUse" gradientTransform="translate(21.7044 71.3144) rotate(135) scale(6.29498)">
<stop stop-color="#A99A99"/>
<stop offset="0.836792" stop-color="#A99A99" stop-opacity="0.103547"/>
<stop offset="1" stop-color="#A99A99" stop-opacity="0"/>
</radialGradient>
<linearGradient id="paint16_linear_54_141" x1="90" y1="157.939" x2="90" y2="168.223" gradientUnits="userSpaceOnUse">
<stop stop-color="#CFC6DE"/>
<stop offset="1" stop-color="#C3B4D7"/>
</linearGradient>
<linearGradient id="paint17_linear_54_141" x1="97.7344" y1="168.223" x2="97.7344" y2="160.313" gradientUnits="userSpaceOnUse">
<stop stop-color="#AC91C9"/>
<stop offset="1" stop-color="#C2B3D6" stop-opacity="0"/>
</linearGradient>
<linearGradient id="paint18_linear_54_141" x1="90" y1="157.939" x2="90" y2="160.84" gradientUnits="userSpaceOnUse">
<stop stop-color="#CFCBD7"/>
<stop offset="1" stop-color="#CFCBD7" stop-opacity="0"/>
</linearGradient>
<radialGradient id="paint19_radial_54_141" cx="0" cy="0" r="1" gradientUnits="userSpaceOnUse" gradientTransform="translate(164.707 155.742) rotate(90) scale(10.8984 7.06096)">
<stop offset="0.241932" stop-color="#F7F4FE"/>
<stop offset="1" stop-color="#C8BCDB" stop-opacity="0"/>
</radialGradient>
<radialGradient id="paint20_radial_54_141" cx="0" cy="0" r="1" gradientUnits="userSpaceOnUse" gradientTransform="translate(80.1562 142.383) rotate(90) scale(25.8398 36.4675)">
<stop offset="0.645161" stop-color="#9884AF"/>
<stop offset="1" stop-color="#9884AF" stop-opacity="0"/>
</radialGradient>
<linearGradient id="paint21_linear_54_141" x1="114.082" y1="123.794" x2="164.707" y2="123.794" gradientUnits="userSpaceOnUse">
<stop stop-color="#66636F"/>
<stop offset="1" stop-color="#6B6873"/>
</linearGradient>
<linearGradient id="paint22_linear_54_141" x1="11.4258" y1="133.242" x2="26.543" y2="133.418" gradientUnits="userSpaceOnUse">
<stop offset="0.342105" stop-color="#5E5C64"/>
<stop offset="1" stop-color="#5E5C64" stop-opacity="0"/>
</linearGradient>
<linearGradient id="paint23_linear_54_141" x1="9.49219" y1="124.805" x2="15.9961" y2="124.805" gradientUnits="userSpaceOnUse">
<stop stop-color="#8F8F91"/>
<stop offset="1" stop-color="#6D6C71" stop-opacity="0"/>
</linearGradient>
<linearGradient id="paint24_linear_54_141" x1="90" y1="89.6484" x2="90" y2="93.8672" gradientUnits="userSpaceOnUse">
<stop stop-color="#706F76"/>
<stop offset="1" stop-color="#706F76" stop-opacity="0"/>
</linearGradient>
<radialGradient id="paint25_radial_54_141" cx="0" cy="0" r="1" gradientUnits="userSpaceOnUse" gradientTransform="translate(76.6406 134.473) rotate(53.6782) scale(47.7795 47.5972)">
<stop offset="0.59701" stop-color="#4B4357"/>
<stop offset="1" stop-color="#524C5D" stop-opacity="0"/>
</radialGradient>
<linearGradient id="paint26_linear_54_141" x1="168.734" y1="119.372" x2="157.407" y2="119.372" gradientUnits="userSpaceOnUse">
<stop stop-color="#8D8D92" stop-opacity="0"/>
<stop offset="0.126636" stop-color="#8D8D92" stop-opacity="0.7"/>
<stop offset="0.192587" stop-color="#8D8D92" stop-opacity="0.898462"/>
<stop offset="0.252719" stop-color="#8D8D92"/>
<stop offset="0.334188" stop-color="#8D8D92" stop-opacity="0.933652"/>
<stop offset="0.588869" stop-color="#8D8D92" stop-opacity="0.278372"/>
<stop offset="0.75337" stop-color="#8D8D92" stop-opacity="0.105137"/>
<stop offset="1" stop-color="#8D8D92" stop-opacity="0"/>
</linearGradient>
<linearGradient id="paint27_linear_54_141" x1="90" y1="89.6484" x2="90" y2="91.4941" gradientUnits="userSpaceOnUse">
<stop stop-color="#5F5E65"/>
<stop offset="1" stop-color="#5F5E65" stop-opacity="0"/>
</linearGradient>
<linearGradient id="paint28_linear_54_141" x1="108.633" y1="157.939" x2="108.633" y2="154.512" gradientUnits="userSpaceOnUse">
<stop stop-color="#5C536A"/>
<stop offset="1" stop-color="#5C536A" stop-opacity="0"/>
</linearGradient>
<radialGradient id="paint29_radial_54_141" cx="0" cy="0" r="1" gradientUnits="userSpaceOnUse" gradientTransform="translate(42.3952 89.9205) rotate(117.084) scale(9.37305 10.5733)">
<stop offset="0.245053" stop-color="#4E474A"/>
<stop offset="0.831062" stop-color="#4E474A" stop-opacity="0.125132"/>
<stop offset="1" stop-color="#4E474A" stop-opacity="0"/>
</radialGradient>
<radialGradient id="paint30_radial_54_141" cx="0" cy="0" r="1" gradientUnits="userSpaceOnUse" gradientTransform="translate(120.059 105.117) rotate(143.867) scale(62.8997)">
<stop stop-color="#A6A2AE"/>
<stop offset="1" stop-color="#A6A2AF"/>
</radialGradient>
<radialGradient id="paint31_radial_54_141" cx="0" cy="0" r="1" gradientUnits="userSpaceOnUse" gradientTransform="translate(90.4225 122.817) rotate(99.2333) scale(40.4484)">
<stop stop-color="#8B8794" stop-opacity="0"/>
<stop offset="0.931124" stop-color="#8B8794" stop-opacity="0"/>
<stop offset="0.947057" stop-color="#8B8794" stop-opacity="0.174121"/>
<stop offset="0.991566" stop-color="#8B8794"/>
</radialGradient>
<radialGradient id="paint32_radial_54_141" cx="0" cy="0" r="1" gradientUnits="userSpaceOnUse" gradientTransform="translate(89.628 124.203) rotate(-42.1968) scale(40.8757)">
<stop stop-color="#CDCDD2" stop-opacity="0"/>
<stop offset="0.931124" stop-color="#CDCDD2" stop-opacity="0"/>
<stop offset="0.947057" stop-color="#CDCDD2" stop-opacity="0.174121"/>
<stop offset="0.991566" stop-color="#CDCDD2"/>
</radialGradient>
<radialGradient id="paint33_radial_54_141" cx="0" cy="0" r="1" gradientUnits="userSpaceOnUse" gradientTransform="translate(90.957 122.678) rotate(-43.3851) scale(29.5389)">
<stop offset="0.890969" stop-color="#6A6375"/>
<stop offset="0.969752" stop-color="#6A6375" stop-opacity="0.168599"/>
<stop offset="1" stop-color="#6A6375" stop-opacity="0"/>
</radialGradient>
<radialGradient id="paint34_radial_54_141" cx="0" cy="0" r="1" gradientUnits="userSpaceOnUse" gradientTransform="translate(88.5796 124.324) rotate(135) scale(29.2667 29.5117)">
<stop offset="0.894073" stop-color="#B7B6BD"/>
<stop offset="0.941239" stop-color="#B7B6BD" stop-opacity="0.690072"/>
<stop offset="0.979531" stop-color="#B7B6BD" stop-opacity="0.179753"/>
<stop offset="1" stop-color="#B7B6BD" stop-opacity="0"/>
</radialGradient>
<radialGradient id="paint35_radial_54_141" cx="0" cy="0" r="1" gradientUnits="userSpaceOnUse" gradientTransform="translate(105.293 116.191) rotate(144.831) scale(36.5929 40.3323)">
<stop offset="0.289467" stop-color="#67616D"/>
<stop offset="1" stop-color="#4D3E5C"/>
</radialGradient>
<radialGradient id="paint36_radial_54_141" cx="0" cy="0" r="1" gradientUnits="userSpaceOnUse" gradientTransform="translate(90 123.618) rotate(90) scale(27.9492)">
<stop offset="0.782726" stop-color="#2C2634" stop-opacity="0"/>
<stop offset="0.815252" stop-color="#2C2634" stop-opacity="0.0453366"/>
<stop offset="0.848925" stop-color="#2C2634" stop-opacity="0.134552"/>
<stop offset="0.90478" stop-color="#2C2634" stop-opacity="0.412445"/>
<stop offset="1" stop-color="#2C2634" stop-opacity="0.9"/>
</radialGradient>
<linearGradient id="paint37_linear_54_141" x1="97.207" y1="136.406" x2="79.1016" y2="112.324" gradientUnits="userSpaceOnUse">
<stop stop-color="#463755"/>
<stop offset="1" stop-color="#473F51"/>
</linearGradient>
<radialGradient id="paint38_radial_54_141" cx="0" cy="0" r="1" gradientUnits="userSpaceOnUse" gradientTransform="translate(80.8594 133.945) rotate(-48.6139) scale(23.6633 16.2269)">
<stop stop-color="#544E5C"/>
<stop offset="1" stop-color="#544E5C" stop-opacity="0"/>
</radialGradient>
<radialGradient id="paint39_radial_54_141" cx="0" cy="0" r="1" gradientUnits="userSpaceOnUse" gradientTransform="translate(103.799 111.973) rotate(146.088) scale(12.6027)">
<stop stop-color="#544E5C"/>
<stop offset="1" stop-color="#544E5C" stop-opacity="0"/>
</radialGradient>
<linearGradient id="paint40_linear_54_141" x1="103.922" y1="108.883" x2="99.7844" y2="118.431" gradientUnits="userSpaceOnUse">
<stop offset="0.0511788" stop-color="#F3F2F4"/>
<stop offset="1" stop-color="#F3F2F4" stop-opacity="0"/>
</linearGradient>
<radialGradient id="paint41_radial_54_141" cx="0" cy="0" r="1" gradientUnits="userSpaceOnUse" gradientTransform="translate(62.9297 49.5703) rotate(140.711) scale(19.9866 34.9765)">
<stop stop-color="#FFFF9C"/>
<stop offset="1" stop-color="#EAC73C"/>
</radialGradient>
<radialGradient id="paint42_radial_54_141" cx="0" cy="0" r="1" gradientUnits="userSpaceOnUse" gradientTransform="translate(58.8867 50.2734) rotate(136.736) scale(8.20731 14.9059)">
<stop offset="0.172477" stop-color="#FFFCA0"/>
<stop offset="1" stop-color="#FFFCA0" stop-opacity="0"/>
</radialGradient>
<radialGradient id="paint43_radial_54_141" cx="0" cy="0" r="1" gradientUnits="userSpaceOnUse" gradientTransform="translate(46.1152 65.8058) rotate(91.2362) scale(25.2093)">
<stop stop-color="#FFEDD9"/>
<stop offset="0.217613" stop-color="#FFEDD9" stop-opacity="0.903363"/>
<stop offset="0.480726" stop-color="#FFEDD9" stop-opacity="0.679832"/>
<stop offset="1" stop-color="#FFEDD9" stop-opacity="0"/>
</radialGradient>
<radialGradient id="paint44_radial_54_141" cx="0" cy="0" r="1" gradientUnits="userSpaceOnUse" gradientTransform="translate(24.9199 46.8747) rotate(47.3686) scale(18.2499 31.706)">
<stop offset="0.215147" stop-color="#D2AA41"/>
<stop offset="0.844426" stop-color="#D2AA41" stop-opacity="0.0733489"/>
<stop offset="1" stop-color="#D2AA41" stop-opacity="0"/>
</radialGradient>
<radialGradient id="paint45_radial_54_141" cx="0" cy="0" r="1" gradientUnits="userSpaceOnUse" gradientTransform="translate(24.613 84.6868) rotate(-49.9271) scale(15.6289 25.4589)">
<stop offset="0.413249" stop-color="#D2AA41"/>
<stop offset="0.87095" stop-color="#D2AA41" stop-opacity="0.0733489"/>
<stop offset="1" stop-color="#D2AA41" stop-opacity="0"/>
</radialGradient>
<radialGradient id="paint46_radial_54_141" cx="0" cy="0" r="1" gradientUnits="userSpaceOnUse" gradientTransform="translate(69.8578 90.2208) rotate(-119.622) scale(22.1621 36.1014)">
<stop offset="0.413249" stop-color="#D2AA41"/>
<stop offset="0.885843" stop-color="#D2AA41" stop-opacity="0.0733489"/>
<stop offset="1" stop-color="#D2AA41" stop-opacity="0"/>
</radialGradient>
</defs>
</svg>
