<svg width="180" height="180" viewBox="0 0 180 180" fill="none" xmlns="http://www.w3.org/2000/svg">
<g id="Card file box">
<rect id="Rectangle 1204" x="19.5996" y="36.123" width="140.801" height="59.4141" rx="0.75" fill="url(#paint0_linear_572_2220)"/>
<g id="Rectangle 1134">
<rect x="28.125" y="28.4766" width="123.75" height="75.4407" rx="2.5" fill="url(#paint1_linear_572_2220)"/>
<rect x="28.125" y="28.4766" width="123.75" height="75.4407" rx="2.5" fill="url(#paint2_linear_572_2220)"/>
<rect x="28.125" y="28.4766" width="123.75" height="75.4407" rx="2.5" fill="url(#paint3_radial_572_2220)"/>
<rect x="28.125" y="28.4766" width="123.75" height="75.4407" rx="2.5" fill="url(#paint4_radial_572_2220)"/>
<rect x="28.125" y="28.4766" width="123.75" height="75.4407" rx="2.5" fill="url(#paint5_linear_572_2220)"/>
</g>
<g id="Rectangle 1133">
<rect x="28.125" y="50.9766" width="123.75" height="75.4407" rx="2.5" fill="url(#paint6_linear_572_2220)"/>
<rect x="28.125" y="50.9766" width="123.75" height="75.4407" rx="2.5" fill="url(#paint7_linear_572_2220)"/>
<rect x="28.125" y="50.9766" width="123.75" height="75.4407" rx="2.5" fill="url(#paint8_radial_572_2220)"/>
<rect x="28.125" y="50.9766" width="123.75" height="75.4407" rx="2.5" fill="url(#paint9_linear_572_2220)"/>
<rect x="28.125" y="50.9766" width="123.75" height="75.4407" rx="2.5" fill="url(#paint10_radial_572_2220)"/>
</g>
<g id="Rectangle 1132">
<rect x="28.125" y="72.7734" width="123.75" height="75.4407" rx="2.5" fill="url(#paint11_linear_572_2220)"/>
<rect x="28.125" y="72.7734" width="123.75" height="75.4407" rx="2.5" fill="url(#paint12_radial_572_2220)"/>
<rect x="28.125" y="72.7734" width="123.75" height="75.4407" rx="2.5" fill="url(#paint13_linear_572_2220)"/>
<rect x="28.125" y="72.7734" width="123.75" height="75.4407" rx="2.5" fill="url(#paint14_linear_572_2220)"/>
<rect x="28.125" y="72.7734" width="123.75" height="75.4407" rx="2.5" fill="url(#paint15_radial_572_2220)"/>
</g>
<g id="Subtract">
<path d="M11.0742 90.5273V155.391C11.0742 162.38 16.7408 168.047 23.7305 168.047H155.215C162.205 168.047 167.871 162.38 167.871 155.391V90.5273C167.871 97.5172 162.205 103.184 155.215 103.184H23.7305C16.7408 103.184 11.0742 97.5172 11.0742 90.5273Z" fill="url(#paint16_linear_572_2220)"/>
<path d="M11.0742 90.5273V155.391C11.0742 162.38 16.7408 168.047 23.7305 168.047H155.215C162.205 168.047 167.871 162.38 167.871 155.391V90.5273C167.871 97.5172 162.205 103.184 155.215 103.184H23.7305C16.7408 103.184 11.0742 97.5172 11.0742 90.5273Z" fill="url(#paint17_linear_572_2220)"/>
<path d="M11.0742 90.5273V155.391C11.0742 162.38 16.7408 168.047 23.7305 168.047H155.215C162.205 168.047 167.871 162.38 167.871 155.391V90.5273C167.871 97.5172 162.205 103.184 155.215 103.184H23.7305C16.7408 103.184 11.0742 97.5172 11.0742 90.5273Z" fill="url(#paint18_linear_572_2220)"/>
<path d="M11.0742 90.5273V155.391C11.0742 162.38 16.7408 168.047 23.7305 168.047H155.215C162.205 168.047 167.871 162.38 167.871 155.391V90.5273C167.871 97.5172 162.205 103.184 155.215 103.184H23.7305C16.7408 103.184 11.0742 97.5172 11.0742 90.5273Z" fill="url(#paint19_radial_572_2220)"/>
<path d="M11.0742 90.5273V155.391C11.0742 162.38 16.7408 168.047 23.7305 168.047H155.215C162.205 168.047 167.871 162.38 167.871 155.391V90.5273C167.871 97.5172 162.205 103.184 155.215 103.184H23.7305C16.7408 103.184 11.0742 97.5172 11.0742 90.5273Z" fill="url(#paint20_radial_572_2220)"/>
<path d="M11.0742 90.5273V155.391C11.0742 162.38 16.7408 168.047 23.7305 168.047H155.215C162.205 168.047 167.871 162.38 167.871 155.391V90.5273C167.871 97.5172 162.205 103.184 155.215 103.184H23.7305C16.7408 103.184 11.0742 97.5172 11.0742 90.5273Z" fill="url(#paint21_radial_572_2220)"/>
<path d="M11.0742 90.5273V155.391C11.0742 162.38 16.7408 168.047 23.7305 168.047H155.215C162.205 168.047 167.871 162.38 167.871 155.391V90.5273C167.871 97.5172 162.205 103.184 155.215 103.184H23.7305C16.7408 103.184 11.0742 97.5172 11.0742 90.5273Z" fill="url(#paint22_radial_572_2220)"/>
<path d="M11.0742 90.5273V155.391C11.0742 162.38 16.7408 168.047 23.7305 168.047H155.215C162.205 168.047 167.871 162.38 167.871 155.391V90.5273C167.871 97.5172 162.205 103.184 155.215 103.184H23.7305C16.7408 103.184 11.0742 97.5172 11.0742 90.5273Z" fill="url(#paint23_radial_572_2220)"/>
<path d="M11.0742 90.5273V155.391C11.0742 162.38 16.7408 168.047 23.7305 168.047H155.215C162.205 168.047 167.871 162.38 167.871 155.391V90.5273C167.871 97.5172 162.205 103.184 155.215 103.184H23.7305C16.7408 103.184 11.0742 97.5172 11.0742 90.5273Z" fill="url(#paint24_radial_572_2220)"/>
<path d="M11.0742 90.5273V155.391C11.0742 162.38 16.7408 168.047 23.7305 168.047H155.215C162.205 168.047 167.871 162.38 167.871 155.391V90.5273C167.871 97.5172 162.205 103.184 155.215 103.184H23.7305C16.7408 103.184 11.0742 97.5172 11.0742 90.5273Z" fill="url(#paint25_radial_572_2220)"/>
</g>
<g id="Subtract_2">
<path fill-rule="evenodd" clip-rule="evenodd" d="M74.9357 118.213C70.5865 118.213 67.0605 121.739 67.0605 126.088V143.736C67.0605 148.086 70.5865 151.611 74.9357 151.611H104.054C108.403 151.611 111.929 148.086 111.929 143.736V126.088C111.929 121.739 108.403 118.213 104.054 118.213H74.9357ZM74.8038 123.618C73.561 123.618 72.5537 124.626 72.5537 125.868V143.956C72.5537 145.199 73.561 146.206 74.8038 146.206H104.185C105.428 146.206 106.436 145.199 106.436 143.956V125.868C106.436 124.626 105.428 123.618 104.185 123.618H74.8038Z" fill="url(#paint26_linear_572_2220)"/>
<path fill-rule="evenodd" clip-rule="evenodd" d="M74.9357 118.213C70.5865 118.213 67.0605 121.739 67.0605 126.088V143.736C67.0605 148.086 70.5865 151.611 74.9357 151.611H104.054C108.403 151.611 111.929 148.086 111.929 143.736V126.088C111.929 121.739 108.403 118.213 104.054 118.213H74.9357ZM74.8038 123.618C73.561 123.618 72.5537 124.626 72.5537 125.868V143.956C72.5537 145.199 73.561 146.206 74.8038 146.206H104.185C105.428 146.206 106.436 145.199 106.436 143.956V125.868C106.436 124.626 105.428 123.618 104.185 123.618H74.8038Z" fill="url(#paint27_linear_572_2220)"/>
<path fill-rule="evenodd" clip-rule="evenodd" d="M74.9357 118.213C70.5865 118.213 67.0605 121.739 67.0605 126.088V143.736C67.0605 148.086 70.5865 151.611 74.9357 151.611H104.054C108.403 151.611 111.929 148.086 111.929 143.736V126.088C111.929 121.739 108.403 118.213 104.054 118.213H74.9357ZM74.8038 123.618C73.561 123.618 72.5537 124.626 72.5537 125.868V143.956C72.5537 145.199 73.561 146.206 74.8038 146.206H104.185C105.428 146.206 106.436 145.199 106.436 143.956V125.868C106.436 124.626 105.428 123.618 104.185 123.618H74.8038Z" fill="url(#paint28_linear_572_2220)"/>
<path fill-rule="evenodd" clip-rule="evenodd" d="M74.9357 118.213C70.5865 118.213 67.0605 121.739 67.0605 126.088V143.736C67.0605 148.086 70.5865 151.611 74.9357 151.611H104.054C108.403 151.611 111.929 148.086 111.929 143.736V126.088C111.929 121.739 108.403 118.213 104.054 118.213H74.9357ZM74.8038 123.618C73.561 123.618 72.5537 124.626 72.5537 125.868V143.956C72.5537 145.199 73.561 146.206 74.8038 146.206H104.185C105.428 146.206 106.436 145.199 106.436 143.956V125.868C106.436 124.626 105.428 123.618 104.185 123.618H74.8038Z" fill="url(#paint29_linear_572_2220)"/>
<path fill-rule="evenodd" clip-rule="evenodd" d="M74.9357 118.213C70.5865 118.213 67.0605 121.739 67.0605 126.088V143.736C67.0605 148.086 70.5865 151.611 74.9357 151.611H104.054C108.403 151.611 111.929 148.086 111.929 143.736V126.088C111.929 121.739 108.403 118.213 104.054 118.213H74.9357ZM74.8038 123.618C73.561 123.618 72.5537 124.626 72.5537 125.868V143.956C72.5537 145.199 73.561 146.206 74.8038 146.206H104.185C105.428 146.206 106.436 145.199 106.436 143.956V125.868C106.436 124.626 105.428 123.618 104.185 123.618H74.8038Z" fill="url(#paint30_radial_572_2220)"/>
<path fill-rule="evenodd" clip-rule="evenodd" d="M74.9357 118.213C70.5865 118.213 67.0605 121.739 67.0605 126.088V143.736C67.0605 148.086 70.5865 151.611 74.9357 151.611H104.054C108.403 151.611 111.929 148.086 111.929 143.736V126.088C111.929 121.739 108.403 118.213 104.054 118.213H74.9357ZM74.8038 123.618C73.561 123.618 72.5537 124.626 72.5537 125.868V143.956C72.5537 145.199 73.561 146.206 74.8038 146.206H104.185C105.428 146.206 106.436 145.199 106.436 143.956V125.868C106.436 124.626 105.428 123.618 104.185 123.618H74.8038Z" fill="url(#paint31_radial_572_2220)"/>
<path fill-rule="evenodd" clip-rule="evenodd" d="M74.9357 118.213C70.5865 118.213 67.0605 121.739 67.0605 126.088V143.736C67.0605 148.086 70.5865 151.611 74.9357 151.611H104.054C108.403 151.611 111.929 148.086 111.929 143.736V126.088C111.929 121.739 108.403 118.213 104.054 118.213H74.9357ZM74.8038 123.618C73.561 123.618 72.5537 124.626 72.5537 125.868V143.956C72.5537 145.199 73.561 146.206 74.8038 146.206H104.185C105.428 146.206 106.436 145.199 106.436 143.956V125.868C106.436 124.626 105.428 123.618 104.185 123.618H74.8038Z" fill="url(#paint32_radial_572_2220)"/>
<path fill-rule="evenodd" clip-rule="evenodd" d="M74.9357 118.213C70.5865 118.213 67.0605 121.739 67.0605 126.088V143.736C67.0605 148.086 70.5865 151.611 74.9357 151.611H104.054C108.403 151.611 111.929 148.086 111.929 143.736V126.088C111.929 121.739 108.403 118.213 104.054 118.213H74.9357ZM74.8038 123.618C73.561 123.618 72.5537 124.626 72.5537 125.868V143.956C72.5537 145.199 73.561 146.206 74.8038 146.206H104.185C105.428 146.206 106.436 145.199 106.436 143.956V125.868C106.436 124.626 105.428 123.618 104.185 123.618H74.8038Z" fill="url(#paint33_linear_572_2220)"/>
<path fill-rule="evenodd" clip-rule="evenodd" d="M74.9357 118.213C70.5865 118.213 67.0605 121.739 67.0605 126.088V143.736C67.0605 148.086 70.5865 151.611 74.9357 151.611H104.054C108.403 151.611 111.929 148.086 111.929 143.736V126.088C111.929 121.739 108.403 118.213 104.054 118.213H74.9357ZM74.8038 123.618C73.561 123.618 72.5537 124.626 72.5537 125.868V143.956C72.5537 145.199 73.561 146.206 74.8038 146.206H104.185C105.428 146.206 106.436 145.199 106.436 143.956V125.868C106.436 124.626 105.428 123.618 104.185 123.618H74.8038Z" fill="url(#paint34_linear_572_2220)"/>
<path fill-rule="evenodd" clip-rule="evenodd" d="M74.9357 118.213C70.5865 118.213 67.0605 121.739 67.0605 126.088V143.736C67.0605 148.086 70.5865 151.611 74.9357 151.611H104.054C108.403 151.611 111.929 148.086 111.929 143.736V126.088C111.929 121.739 108.403 118.213 104.054 118.213H74.9357ZM74.8038 123.618C73.561 123.618 72.5537 124.626 72.5537 125.868V143.956C72.5537 145.199 73.561 146.206 74.8038 146.206H104.185C105.428 146.206 106.436 145.199 106.436 143.956V125.868C106.436 124.626 105.428 123.618 104.185 123.618H74.8038Z" fill="url(#paint35_linear_572_2220)"/>
<path fill-rule="evenodd" clip-rule="evenodd" d="M74.9357 118.213C70.5865 118.213 67.0605 121.739 67.0605 126.088V143.736C67.0605 148.086 70.5865 151.611 74.9357 151.611H104.054C108.403 151.611 111.929 148.086 111.929 143.736V126.088C111.929 121.739 108.403 118.213 104.054 118.213H74.9357ZM74.8038 123.618C73.561 123.618 72.5537 124.626 72.5537 125.868V143.956C72.5537 145.199 73.561 146.206 74.8038 146.206H104.185C105.428 146.206 106.436 145.199 106.436 143.956V125.868C106.436 124.626 105.428 123.618 104.185 123.618H74.8038Z" fill="url(#paint36_radial_572_2220)"/>
<path fill-rule="evenodd" clip-rule="evenodd" d="M74.9357 118.213C70.5865 118.213 67.0605 121.739 67.0605 126.088V143.736C67.0605 148.086 70.5865 151.611 74.9357 151.611H104.054C108.403 151.611 111.929 148.086 111.929 143.736V126.088C111.929 121.739 108.403 118.213 104.054 118.213H74.9357ZM74.8038 123.618C73.561 123.618 72.5537 124.626 72.5537 125.868V143.956C72.5537 145.199 73.561 146.206 74.8038 146.206H104.185C105.428 146.206 106.436 145.199 106.436 143.956V125.868C106.436 124.626 105.428 123.618 104.185 123.618H74.8038Z" fill="url(#paint37_radial_572_2220)"/>
<path fill-rule="evenodd" clip-rule="evenodd" d="M74.9357 118.213C70.5865 118.213 67.0605 121.739 67.0605 126.088V143.736C67.0605 148.086 70.5865 151.611 74.9357 151.611H104.054C108.403 151.611 111.929 148.086 111.929 143.736V126.088C111.929 121.739 108.403 118.213 104.054 118.213H74.9357ZM74.8038 123.618C73.561 123.618 72.5537 124.626 72.5537 125.868V143.956C72.5537 145.199 73.561 146.206 74.8038 146.206H104.185C105.428 146.206 106.436 145.199 106.436 143.956V125.868C106.436 124.626 105.428 123.618 104.185 123.618H74.8038Z" fill="url(#paint38_radial_572_2220)"/>
</g>
<g id="Subtract_3">
<path d="M11.0742 41.1328C11.0742 34.143 16.7408 28.4766 23.7305 28.4766H42.1875C36.7321 28.4766 32.0025 31.5828 29.6706 36.123H23.8184C21.4886 36.123 19.5996 38.0118 19.5996 40.3418V91.3184C19.5996 93.6483 21.4886 95.5371 23.8184 95.5371H156.182C158.511 95.5371 160.4 93.6483 160.4 91.3184V40.3418C160.4 38.0118 158.511 36.123 156.182 36.123H150.329C147.998 31.5828 143.268 28.4766 137.812 28.4766H155.215C162.205 28.4766 167.871 34.143 167.871 41.1328V90.5273C167.871 97.5172 162.205 103.184 155.215 103.184H23.7305C16.7408 103.184 11.0742 97.5172 11.0742 90.5273V41.1328Z" fill="url(#paint39_linear_572_2220)"/>
<path d="M11.0742 41.1328C11.0742 34.143 16.7408 28.4766 23.7305 28.4766H42.1875C36.7321 28.4766 32.0025 31.5828 29.6706 36.123H23.8184C21.4886 36.123 19.5996 38.0118 19.5996 40.3418V91.3184C19.5996 93.6483 21.4886 95.5371 23.8184 95.5371H156.182C158.511 95.5371 160.4 93.6483 160.4 91.3184V40.3418C160.4 38.0118 158.511 36.123 156.182 36.123H150.329C147.998 31.5828 143.268 28.4766 137.812 28.4766H155.215C162.205 28.4766 167.871 34.143 167.871 41.1328V90.5273C167.871 97.5172 162.205 103.184 155.215 103.184H23.7305C16.7408 103.184 11.0742 97.5172 11.0742 90.5273V41.1328Z" fill="url(#paint40_radial_572_2220)"/>
<path d="M11.0742 41.1328C11.0742 34.143 16.7408 28.4766 23.7305 28.4766H42.1875C36.7321 28.4766 32.0025 31.5828 29.6706 36.123H23.8184C21.4886 36.123 19.5996 38.0118 19.5996 40.3418V91.3184C19.5996 93.6483 21.4886 95.5371 23.8184 95.5371H156.182C158.511 95.5371 160.4 93.6483 160.4 91.3184V40.3418C160.4 38.0118 158.511 36.123 156.182 36.123H150.329C147.998 31.5828 143.268 28.4766 137.812 28.4766H155.215C162.205 28.4766 167.871 34.143 167.871 41.1328V90.5273C167.871 97.5172 162.205 103.184 155.215 103.184H23.7305C16.7408 103.184 11.0742 97.5172 11.0742 90.5273V41.1328Z" fill="url(#paint41_linear_572_2220)"/>
<path d="M11.0742 41.1328C11.0742 34.143 16.7408 28.4766 23.7305 28.4766H42.1875C36.7321 28.4766 32.0025 31.5828 29.6706 36.123H23.8184C21.4886 36.123 19.5996 38.0118 19.5996 40.3418V91.3184C19.5996 93.6483 21.4886 95.5371 23.8184 95.5371H156.182C158.511 95.5371 160.4 93.6483 160.4 91.3184V40.3418C160.4 38.0118 158.511 36.123 156.182 36.123H150.329C147.998 31.5828 143.268 28.4766 137.812 28.4766H155.215C162.205 28.4766 167.871 34.143 167.871 41.1328V90.5273C167.871 97.5172 162.205 103.184 155.215 103.184H23.7305C16.7408 103.184 11.0742 97.5172 11.0742 90.5273V41.1328Z" fill="url(#paint42_linear_572_2220)"/>
<path d="M11.0742 41.1328C11.0742 34.143 16.7408 28.4766 23.7305 28.4766H42.1875C36.7321 28.4766 32.0025 31.5828 29.6706 36.123H23.8184C21.4886 36.123 19.5996 38.0118 19.5996 40.3418V91.3184C19.5996 93.6483 21.4886 95.5371 23.8184 95.5371H156.182C158.511 95.5371 160.4 93.6483 160.4 91.3184V40.3418C160.4 38.0118 158.511 36.123 156.182 36.123H150.329C147.998 31.5828 143.268 28.4766 137.812 28.4766H155.215C162.205 28.4766 167.871 34.143 167.871 41.1328V90.5273C167.871 97.5172 162.205 103.184 155.215 103.184H23.7305C16.7408 103.184 11.0742 97.5172 11.0742 90.5273V41.1328Z" fill="url(#paint43_linear_572_2220)"/>
<path d="M11.0742 41.1328C11.0742 34.143 16.7408 28.4766 23.7305 28.4766H42.1875C36.7321 28.4766 32.0025 31.5828 29.6706 36.123H23.8184C21.4886 36.123 19.5996 38.0118 19.5996 40.3418V91.3184C19.5996 93.6483 21.4886 95.5371 23.8184 95.5371H156.182C158.511 95.5371 160.4 93.6483 160.4 91.3184V40.3418C160.4 38.0118 158.511 36.123 156.182 36.123H150.329C147.998 31.5828 143.268 28.4766 137.812 28.4766H155.215C162.205 28.4766 167.871 34.143 167.871 41.1328V90.5273C167.871 97.5172 162.205 103.184 155.215 103.184H23.7305C16.7408 103.184 11.0742 97.5172 11.0742 90.5273V41.1328Z" fill="url(#paint44_linear_572_2220)"/>
<path d="M11.0742 41.1328C11.0742 34.143 16.7408 28.4766 23.7305 28.4766H42.1875C36.7321 28.4766 32.0025 31.5828 29.6706 36.123H23.8184C21.4886 36.123 19.5996 38.0118 19.5996 40.3418V91.3184C19.5996 93.6483 21.4886 95.5371 23.8184 95.5371H156.182C158.511 95.5371 160.4 93.6483 160.4 91.3184V40.3418C160.4 38.0118 158.511 36.123 156.182 36.123H150.329C147.998 31.5828 143.268 28.4766 137.812 28.4766H155.215C162.205 28.4766 167.871 34.143 167.871 41.1328V90.5273C167.871 97.5172 162.205 103.184 155.215 103.184H23.7305C16.7408 103.184 11.0742 97.5172 11.0742 90.5273V41.1328Z" fill="url(#paint45_radial_572_2220)"/>
<path d="M11.0742 41.1328C11.0742 34.143 16.7408 28.4766 23.7305 28.4766H42.1875C36.7321 28.4766 32.0025 31.5828 29.6706 36.123H23.8184C21.4886 36.123 19.5996 38.0118 19.5996 40.3418V91.3184C19.5996 93.6483 21.4886 95.5371 23.8184 95.5371H156.182C158.511 95.5371 160.4 93.6483 160.4 91.3184V40.3418C160.4 38.0118 158.511 36.123 156.182 36.123H150.329C147.998 31.5828 143.268 28.4766 137.812 28.4766H155.215C162.205 28.4766 167.871 34.143 167.871 41.1328V90.5273C167.871 97.5172 162.205 103.184 155.215 103.184H23.7305C16.7408 103.184 11.0742 97.5172 11.0742 90.5273V41.1328Z" fill="url(#paint46_radial_572_2220)"/>
<path d="M11.0742 41.1328C11.0742 34.143 16.7408 28.4766 23.7305 28.4766H42.1875C36.7321 28.4766 32.0025 31.5828 29.6706 36.123H23.8184C21.4886 36.123 19.5996 38.0118 19.5996 40.3418V91.3184C19.5996 93.6483 21.4886 95.5371 23.8184 95.5371H156.182C158.511 95.5371 160.4 93.6483 160.4 91.3184V40.3418C160.4 38.0118 158.511 36.123 156.182 36.123H150.329C147.998 31.5828 143.268 28.4766 137.812 28.4766H155.215C162.205 28.4766 167.871 34.143 167.871 41.1328V90.5273C167.871 97.5172 162.205 103.184 155.215 103.184H23.7305C16.7408 103.184 11.0742 97.5172 11.0742 90.5273V41.1328Z" fill="url(#paint47_radial_572_2220)"/>
<path d="M11.0742 41.1328C11.0742 34.143 16.7408 28.4766 23.7305 28.4766H42.1875C36.7321 28.4766 32.0025 31.5828 29.6706 36.123H23.8184C21.4886 36.123 19.5996 38.0118 19.5996 40.3418V91.3184C19.5996 93.6483 21.4886 95.5371 23.8184 95.5371H156.182C158.511 95.5371 160.4 93.6483 160.4 91.3184V40.3418C160.4 38.0118 158.511 36.123 156.182 36.123H150.329C147.998 31.5828 143.268 28.4766 137.812 28.4766H155.215C162.205 28.4766 167.871 34.143 167.871 41.1328V90.5273C167.871 97.5172 162.205 103.184 155.215 103.184H23.7305C16.7408 103.184 11.0742 97.5172 11.0742 90.5273V41.1328Z" fill="url(#paint48_radial_572_2220)"/>
<path d="M11.0742 41.1328C11.0742 34.143 16.7408 28.4766 23.7305 28.4766H42.1875C36.7321 28.4766 32.0025 31.5828 29.6706 36.123H23.8184C21.4886 36.123 19.5996 38.0118 19.5996 40.3418V91.3184C19.5996 93.6483 21.4886 95.5371 23.8184 95.5371H156.182C158.511 95.5371 160.4 93.6483 160.4 91.3184V40.3418C160.4 38.0118 158.511 36.123 156.182 36.123H150.329C147.998 31.5828 143.268 28.4766 137.812 28.4766H155.215C162.205 28.4766 167.871 34.143 167.871 41.1328V90.5273C167.871 97.5172 162.205 103.184 155.215 103.184H23.7305C16.7408 103.184 11.0742 97.5172 11.0742 90.5273V41.1328Z" fill="url(#paint49_radial_572_2220)"/>
<path d="M11.0742 41.1328C11.0742 34.143 16.7408 28.4766 23.7305 28.4766H42.1875C36.7321 28.4766 32.0025 31.5828 29.6706 36.123H23.8184C21.4886 36.123 19.5996 38.0118 19.5996 40.3418V91.3184C19.5996 93.6483 21.4886 95.5371 23.8184 95.5371H156.182C158.511 95.5371 160.4 93.6483 160.4 91.3184V40.3418C160.4 38.0118 158.511 36.123 156.182 36.123H150.329C147.998 31.5828 143.268 28.4766 137.812 28.4766H155.215C162.205 28.4766 167.871 34.143 167.871 41.1328V90.5273C167.871 97.5172 162.205 103.184 155.215 103.184H23.7305C16.7408 103.184 11.0742 97.5172 11.0742 90.5273V41.1328Z" fill="url(#paint50_radial_572_2220)"/>
<path d="M11.0742 41.1328C11.0742 34.143 16.7408 28.4766 23.7305 28.4766H42.1875C36.7321 28.4766 32.0025 31.5828 29.6706 36.123H23.8184C21.4886 36.123 19.5996 38.0118 19.5996 40.3418V91.3184C19.5996 93.6483 21.4886 95.5371 23.8184 95.5371H156.182C158.511 95.5371 160.4 93.6483 160.4 91.3184V40.3418C160.4 38.0118 158.511 36.123 156.182 36.123H150.329C147.998 31.5828 143.268 28.4766 137.812 28.4766H155.215C162.205 28.4766 167.871 34.143 167.871 41.1328V90.5273C167.871 97.5172 162.205 103.184 155.215 103.184H23.7305C16.7408 103.184 11.0742 97.5172 11.0742 90.5273V41.1328Z" fill="url(#paint51_radial_572_2220)"/>
<path d="M11.0742 41.1328C11.0742 34.143 16.7408 28.4766 23.7305 28.4766H42.1875C36.7321 28.4766 32.0025 31.5828 29.6706 36.123H23.8184C21.4886 36.123 19.5996 38.0118 19.5996 40.3418V91.3184C19.5996 93.6483 21.4886 95.5371 23.8184 95.5371H156.182C158.511 95.5371 160.4 93.6483 160.4 91.3184V40.3418C160.4 38.0118 158.511 36.123 156.182 36.123H150.329C147.998 31.5828 143.268 28.4766 137.812 28.4766H155.215C162.205 28.4766 167.871 34.143 167.871 41.1328V90.5273C167.871 97.5172 162.205 103.184 155.215 103.184H23.7305C16.7408 103.184 11.0742 97.5172 11.0742 90.5273V41.1328Z" fill="url(#paint52_radial_572_2220)"/>
<path d="M11.0742 41.1328C11.0742 34.143 16.7408 28.4766 23.7305 28.4766H42.1875C36.7321 28.4766 32.0025 31.5828 29.6706 36.123H23.8184C21.4886 36.123 19.5996 38.0118 19.5996 40.3418V91.3184C19.5996 93.6483 21.4886 95.5371 23.8184 95.5371H156.182C158.511 95.5371 160.4 93.6483 160.4 91.3184V40.3418C160.4 38.0118 158.511 36.123 156.182 36.123H150.329C147.998 31.5828 143.268 28.4766 137.812 28.4766H155.215C162.205 28.4766 167.871 34.143 167.871 41.1328V90.5273C167.871 97.5172 162.205 103.184 155.215 103.184H23.7305C16.7408 103.184 11.0742 97.5172 11.0742 90.5273V41.1328Z" fill="url(#paint53_radial_572_2220)"/>
</g>
<g id="Rectangle 1210">
<path d="M44.7144 67.1484C44.7144 64.0418 47.2328 61.5234 50.3394 61.5234H72.9712C76.0778 61.5234 78.5962 64.0418 78.5962 67.1484V72.7734H44.7144V67.1484Z" fill="url(#paint54_linear_572_2220)"/>
<path d="M44.7144 67.1484C44.7144 64.0418 47.2328 61.5234 50.3394 61.5234H72.9712C76.0778 61.5234 78.5962 64.0418 78.5962 67.1484V72.7734H44.7144V67.1484Z" fill="url(#paint55_linear_572_2220)"/>
<path d="M44.7144 67.1484C44.7144 64.0418 47.2328 61.5234 50.3394 61.5234H72.9712C76.0778 61.5234 78.5962 64.0418 78.5962 67.1484V72.7734H44.7144V67.1484Z" fill="url(#paint56_linear_572_2220)"/>
<path d="M44.7144 67.1484C44.7144 64.0418 47.2328 61.5234 50.3394 61.5234H72.9712C76.0778 61.5234 78.5962 64.0418 78.5962 67.1484V72.7734H44.7144V67.1484Z" fill="url(#paint57_linear_572_2220)"/>
<path d="M44.7144 67.1484C44.7144 64.0418 47.2328 61.5234 50.3394 61.5234H72.9712C76.0778 61.5234 78.5962 64.0418 78.5962 67.1484V72.7734H44.7144V67.1484Z" fill="url(#paint58_linear_572_2220)"/>
<path d="M44.7144 67.1484C44.7144 64.0418 47.2328 61.5234 50.3394 61.5234H72.9712C76.0778 61.5234 78.5962 64.0418 78.5962 67.1484V72.7734H44.7144V67.1484Z" fill="url(#paint59_linear_572_2220)"/>
<path d="M44.7144 67.1484C44.7144 64.0418 47.2328 61.5234 50.3394 61.5234H72.9712C76.0778 61.5234 78.5962 64.0418 78.5962 67.1484V72.7734H44.7144V67.1484Z" fill="url(#paint60_linear_572_2220)"/>
</g>
<g id="Rectangle 1211">
<path d="M72.5317 45.3516C72.5317 42.245 75.0501 39.7266 78.1567 39.7266H100.789C103.895 39.7266 106.414 42.245 106.414 45.3516V50.9766H72.5317V45.3516Z" fill="url(#paint61_linear_572_2220)"/>
<path d="M72.5317 45.3516C72.5317 42.245 75.0501 39.7266 78.1567 39.7266H100.789C103.895 39.7266 106.414 42.245 106.414 45.3516V50.9766H72.5317V45.3516Z" fill="url(#paint62_linear_572_2220)"/>
<path d="M72.5317 45.3516C72.5317 42.245 75.0501 39.7266 78.1567 39.7266H100.789C103.895 39.7266 106.414 42.245 106.414 45.3516V50.9766H72.5317V45.3516Z" fill="url(#paint63_linear_572_2220)"/>
<path d="M72.5317 45.3516C72.5317 42.245 75.0501 39.7266 78.1567 39.7266H100.789C103.895 39.7266 106.414 42.245 106.414 45.3516V50.9766H72.5317V45.3516Z" fill="url(#paint64_linear_572_2220)"/>
<path d="M72.5317 45.3516C72.5317 42.245 75.0501 39.7266 78.1567 39.7266H100.789C103.895 39.7266 106.414 42.245 106.414 45.3516V50.9766H72.5317V45.3516Z" fill="url(#paint65_linear_572_2220)"/>
<path d="M72.5317 45.3516C72.5317 42.245 75.0501 39.7266 78.1567 39.7266H100.789C103.895 39.7266 106.414 42.245 106.414 45.3516V50.9766H72.5317V45.3516Z" fill="url(#paint66_linear_572_2220)"/>
</g>
<g id="Rectangle 1212">
<path d="M100.437 22.8516C100.437 19.745 102.955 17.2266 106.062 17.2266H128.694C131.8 17.2266 134.319 19.745 134.319 22.8516V28.4766H100.437V22.8516Z" fill="url(#paint67_linear_572_2220)"/>
<path d="M100.437 22.8516C100.437 19.745 102.955 17.2266 106.062 17.2266H128.694C131.8 17.2266 134.319 19.745 134.319 22.8516V28.4766H100.437V22.8516Z" fill="url(#paint68_linear_572_2220)"/>
<path d="M100.437 22.8516C100.437 19.745 102.955 17.2266 106.062 17.2266H128.694C131.8 17.2266 134.319 19.745 134.319 22.8516V28.4766H100.437V22.8516Z" fill="url(#paint69_linear_572_2220)"/>
<path d="M100.437 22.8516C100.437 19.745 102.955 17.2266 106.062 17.2266H128.694C131.8 17.2266 134.319 19.745 134.319 22.8516V28.4766H100.437V22.8516Z" fill="url(#paint70_linear_572_2220)"/>
<path d="M100.437 22.8516C100.437 19.745 102.955 17.2266 106.062 17.2266H128.694C131.8 17.2266 134.319 19.745 134.319 22.8516V28.4766H100.437V22.8516Z" fill="url(#paint71_linear_572_2220)"/>
<path d="M100.437 22.8516C100.437 19.745 102.955 17.2266 106.062 17.2266H128.694C131.8 17.2266 134.319 19.745 134.319 22.8516V28.4766H100.437V22.8516Z" fill="url(#paint72_linear_572_2220)"/>
<path d="M100.437 22.8516C100.437 19.745 102.955 17.2266 106.062 17.2266H128.694C131.8 17.2266 134.319 19.745 134.319 22.8516V28.4766H100.437V22.8516Z" fill="url(#paint73_linear_572_2220)"/>
</g>
<rect id="Rectangle 1207" x="72.5537" y="123.618" width="33.8818" height="22.5879" rx="0.4" fill="url(#paint74_linear_572_2220)"/>
</g>
<defs>
<linearGradient id="paint0_linear_572_2220" x1="90" y1="36.123" x2="90" y2="95.5371" gradientUnits="userSpaceOnUse">
<stop stop-color="#4B3D53"/>
<stop offset="1" stop-color="#321143"/>
</linearGradient>
<linearGradient id="paint1_linear_572_2220" x1="89.9999" y1="28.4766" x2="89.9999" y2="48.4835" gradientUnits="userSpaceOnUse">
<stop stop-color="#FFD650"/>
<stop offset="1" stop-color="#FFCD4A"/>
</linearGradient>
<linearGradient id="paint2_linear_572_2220" x1="90" y1="48.8738" x2="90" y2="37.5529" gradientUnits="userSpaceOnUse">
<stop stop-color="#FFBA48"/>
<stop offset="1" stop-color="#FFBA48" stop-opacity="0"/>
</linearGradient>
<radialGradient id="paint3_radial_572_2220" cx="0" cy="0" r="1" gradientUnits="userSpaceOnUse" gradientTransform="translate(152.951 41.6816) rotate(180) scale(6.98296 32.8834)">
<stop stop-color="#FFE857"/>
<stop offset="1" stop-color="#FFE857" stop-opacity="0"/>
</radialGradient>
<radialGradient id="paint4_radial_572_2220" cx="0" cy="0" r="1" gradientUnits="userSpaceOnUse" gradientTransform="translate(151.875 30.5003) rotate(134.482) scale(10.0991 17.0824)">
<stop stop-color="#FFE857"/>
<stop offset="1" stop-color="#FFE857" stop-opacity="0"/>
</radialGradient>
<linearGradient id="paint5_linear_572_2220" x1="90" y1="28.4766" x2="90" y2="35.4149" gradientUnits="userSpaceOnUse">
<stop stop-color="#F9CA4C"/>
<stop offset="1" stop-color="#F9CA4C" stop-opacity="0"/>
</linearGradient>
<linearGradient id="paint6_linear_572_2220" x1="89.9999" y1="50.9766" x2="89.9999" y2="126.417" gradientUnits="userSpaceOnUse">
<stop stop-color="#FFDA53"/>
<stop offset="1" stop-color="#FFBA59"/>
</linearGradient>
<linearGradient id="paint7_linear_572_2220" x1="90" y1="75.2776" x2="90" y2="59.8577" gradientUnits="userSpaceOnUse">
<stop stop-color="#FFBA48"/>
<stop offset="1" stop-color="#FFBA48" stop-opacity="0"/>
</linearGradient>
<radialGradient id="paint8_radial_572_2220" cx="0" cy="0" r="1" gradientUnits="userSpaceOnUse" gradientTransform="translate(151.875 53.0003) rotate(134.482) scale(10.0991 17.0824)">
<stop stop-color="#FFE857"/>
<stop offset="1" stop-color="#FFE857" stop-opacity="0"/>
</radialGradient>
<linearGradient id="paint9_linear_572_2220" x1="90" y1="50.9766" x2="90" y2="58.5551" gradientUnits="userSpaceOnUse">
<stop offset="0.14252" stop-color="#FFE34A"/>
<stop offset="0.757556" stop-color="#FFE34A" stop-opacity="0.141064"/>
<stop offset="1" stop-color="#FFE34A" stop-opacity="0"/>
</linearGradient>
<radialGradient id="paint10_radial_572_2220" cx="0" cy="0" r="1" gradientUnits="userSpaceOnUse" gradientTransform="translate(152.951 64.1816) rotate(180) scale(6.98296 32.8834)">
<stop stop-color="#FFE857"/>
<stop offset="1" stop-color="#FFE857" stop-opacity="0"/>
</radialGradient>
<linearGradient id="paint11_linear_572_2220" x1="89.9999" y1="72.7734" x2="89.9999" y2="148.214" gradientUnits="userSpaceOnUse">
<stop stop-color="#FFDA53"/>
<stop offset="1" stop-color="#FFBA59"/>
</linearGradient>
<radialGradient id="paint12_radial_572_2220" cx="0" cy="0" r="1" gradientUnits="userSpaceOnUse" gradientTransform="translate(151.875 74.7971) rotate(134.482) scale(10.0991 17.0824)">
<stop stop-color="#FFE857"/>
<stop offset="1" stop-color="#FFE857" stop-opacity="0"/>
</radialGradient>
<linearGradient id="paint13_linear_572_2220" x1="90" y1="72.7734" x2="90" y2="80.8066" gradientUnits="userSpaceOnUse">
<stop stop-color="#FFF151"/>
<stop offset="0.806099" stop-color="#FFF151" stop-opacity="0.117988"/>
<stop offset="1" stop-color="#FFF151" stop-opacity="0"/>
</linearGradient>
<linearGradient id="paint14_linear_572_2220" x1="23.374" y1="89.2199" x2="32.3996" y2="89.2199" gradientUnits="userSpaceOnUse">
<stop stop-color="#F49968"/>
<stop offset="1" stop-color="#F49968" stop-opacity="0"/>
</linearGradient>
<radialGradient id="paint15_radial_572_2220" cx="0" cy="0" r="1" gradientUnits="userSpaceOnUse" gradientTransform="translate(152.951 85.9784) rotate(180) scale(6.98296 32.8834)">
<stop stop-color="#FFE857"/>
<stop offset="1" stop-color="#FFE857" stop-opacity="0"/>
</radialGradient>
<linearGradient id="paint16_linear_572_2220" x1="89.4727" y1="90.5273" x2="89.4727" y2="168.047" gradientUnits="userSpaceOnUse">
<stop stop-color="#5D4A72"/>
<stop offset="1" stop-color="#544862"/>
</linearGradient>
<linearGradient id="paint17_linear_572_2220" x1="168.926" y1="157.852" x2="153.809" y2="157.852" gradientUnits="userSpaceOnUse">
<stop offset="0.546512" stop-color="#5D5468"/>
<stop offset="1" stop-color="#5B5069" stop-opacity="0"/>
</linearGradient>
<linearGradient id="paint18_linear_572_2220" x1="11.0742" y1="141.68" x2="25.3125" y2="141.68" gradientUnits="userSpaceOnUse">
<stop stop-color="#564F5E"/>
<stop offset="1" stop-color="#564F5E" stop-opacity="0"/>
</linearGradient>
<radialGradient id="paint19_radial_572_2220" cx="0" cy="0" r="1" gradientUnits="userSpaceOnUse" gradientTransform="translate(72.0703 145.371) rotate(118.475) scale(8.94587)">
<stop offset="0.320642" stop-color="#443358"/>
<stop offset="0.790773" stop-color="#443358" stop-opacity="0.0801243"/>
<stop offset="1" stop-color="#443358" stop-opacity="0"/>
</radialGradient>
<radialGradient id="paint20_radial_572_2220" cx="0" cy="0" r="1" gradientUnits="userSpaceOnUse" gradientTransform="translate(71.7936 135.552) rotate(180) scale(8.77474 20.0928)">
<stop offset="0.513665" stop-color="#443358"/>
<stop offset="0.897191" stop-color="#443358" stop-opacity="0.120277"/>
<stop offset="1" stop-color="#443358" stop-opacity="0"/>
</radialGradient>
<radialGradient id="paint21_radial_572_2220" cx="0" cy="0" r="1" gradientUnits="userSpaceOnUse" gradientTransform="translate(78.8527 147.438) rotate(90) scale(7.3071 13.816)">
<stop offset="0.546218" stop-color="#443358"/>
<stop offset="0.918202" stop-color="#443358" stop-opacity="0.120277"/>
<stop offset="1" stop-color="#443358" stop-opacity="0"/>
</radialGradient>
<radialGradient id="paint22_radial_572_2220" cx="0" cy="0" r="1" gradientUnits="userSpaceOnUse" gradientTransform="translate(71.3728 124.674) rotate(-135) scale(8.27213)">
<stop offset="0.417809" stop-color="#443358"/>
<stop offset="0.842466" stop-color="#443358" stop-opacity="0.120277"/>
<stop offset="1" stop-color="#443358" stop-opacity="0"/>
</radialGradient>
<radialGradient id="paint23_radial_572_2220" cx="0" cy="0" r="1" gradientUnits="userSpaceOnUse" gradientTransform="translate(87.6716 146.934) rotate(90) scale(7.11812 18.3937)">
<stop offset="0.546218" stop-color="#443358"/>
<stop offset="0.918202" stop-color="#443358" stop-opacity="0.120277"/>
<stop offset="1" stop-color="#443358" stop-opacity="0"/>
</radialGradient>
<radialGradient id="paint24_radial_572_2220" cx="0" cy="0" r="1" gradientUnits="userSpaceOnUse" gradientTransform="translate(94.1428 145.956) rotate(90) scale(9.0006 21.9045)">
<stop offset="0.596299" stop-color="#443358"/>
<stop offset="0.918202" stop-color="#443358" stop-opacity="0.120277"/>
<stop offset="1" stop-color="#443358" stop-opacity="0"/>
</radialGradient>
<radialGradient id="paint25_radial_572_2220" cx="0" cy="0" r="1" gradientUnits="userSpaceOnUse" gradientTransform="translate(101.799 144.208) rotate(90) scale(10.5918)">
<stop offset="0.596299" stop-color="#443358"/>
<stop offset="0.918202" stop-color="#443358" stop-opacity="0.120277"/>
<stop offset="1" stop-color="#443358" stop-opacity="0"/>
</radialGradient>
<linearGradient id="paint26_linear_572_2220" x1="89.4946" y1="118.213" x2="89.4946" y2="151.611" gradientUnits="userSpaceOnUse">
<stop stop-color="#8B6DC5"/>
<stop offset="1" stop-color="#8466BE"/>
</linearGradient>
<linearGradient id="paint27_linear_572_2220" x1="89.4946" y1="118.213" x2="89.4946" y2="120.251" gradientUnits="userSpaceOnUse">
<stop offset="0.276042" stop-color="#927CCA"/>
<stop offset="1" stop-color="#927CCA" stop-opacity="0"/>
</linearGradient>
<linearGradient id="paint28_linear_572_2220" x1="111.929" y1="135.707" x2="110.185" y2="135.707" gradientUnits="userSpaceOnUse">
<stop offset="0.276042" stop-color="#927CCA"/>
<stop offset="1" stop-color="#927CCA" stop-opacity="0"/>
</linearGradient>
<linearGradient id="paint29_linear_572_2220" x1="110.849" y1="121.071" x2="108.278" y2="123.695" gradientUnits="userSpaceOnUse">
<stop offset="0.276042" stop-color="#927CCA"/>
<stop offset="1" stop-color="#927CCA" stop-opacity="0"/>
</linearGradient>
<radialGradient id="paint30_radial_572_2220" cx="0" cy="0" r="1" gradientUnits="userSpaceOnUse" gradientTransform="translate(75.1327 144.31) rotate(-156.666) scale(3.29935 3.6148)">
<stop offset="0.276042" stop-color="#927CCA"/>
<stop offset="1" stop-color="#927CCA" stop-opacity="0"/>
</radialGradient>
<radialGradient id="paint31_radial_572_2220" cx="0" cy="0" r="1" gradientUnits="userSpaceOnUse" gradientTransform="translate(86.5791 146.532) rotate(0.164495) scale(14.9189 1.39794)">
<stop stop-color="#927CCA"/>
<stop offset="1" stop-color="#927CCA" stop-opacity="0"/>
</radialGradient>
<radialGradient id="paint32_radial_572_2220" cx="0" cy="0" r="1" gradientUnits="userSpaceOnUse" gradientTransform="translate(72.8288 136.559) rotate(-89.0546) scale(11.5861 2.08024)">
<stop stop-color="#927CCA"/>
<stop offset="1" stop-color="#927CCA" stop-opacity="0"/>
</radialGradient>
<linearGradient id="paint33_linear_572_2220" x1="90.2446" y1="117.761" x2="90.2446" y2="118.632" gradientUnits="userSpaceOnUse">
<stop stop-color="#927CCA"/>
<stop offset="1" stop-color="#927CCA" stop-opacity="0"/>
</linearGradient>
<linearGradient id="paint34_linear_572_2220" x1="89.4946" y1="152.356" x2="89.4946" y2="148.391" gradientUnits="userSpaceOnUse">
<stop stop-color="#884BD4"/>
<stop offset="1" stop-color="#884BD4" stop-opacity="0"/>
</linearGradient>
<linearGradient id="paint35_linear_572_2220" x1="64.0636" y1="143.082" x2="69.8338" y2="142.746" gradientUnits="userSpaceOnUse">
<stop stop-color="#884BD4"/>
<stop offset="1" stop-color="#884BD4" stop-opacity="0"/>
</linearGradient>
<radialGradient id="paint36_radial_572_2220" cx="0" cy="0" r="1" gradientUnits="userSpaceOnUse" gradientTransform="translate(87.3294 126.515) rotate(-2.22396) scale(15.2642 6.36509)">
<stop stop-color="#884BD4"/>
<stop offset="1" stop-color="#884BD4" stop-opacity="0"/>
</radialGradient>
<radialGradient id="paint37_radial_572_2220" cx="0" cy="0" r="1" gradientUnits="userSpaceOnUse" gradientTransform="translate(80.1629 125.775) rotate(7.53483) scale(10.141 4.22876)">
<stop stop-color="#884BD4"/>
<stop offset="1" stop-color="#884BD4" stop-opacity="0"/>
</radialGradient>
<radialGradient id="paint38_radial_572_2220" cx="0" cy="0" r="1" gradientUnits="userSpaceOnUse" gradientTransform="translate(101.986 127.716) rotate(58.8972) scale(7.80075 7.58509)">
<stop stop-color="#884BD4"/>
<stop offset="1" stop-color="#884BD4" stop-opacity="0"/>
</radialGradient>
<linearGradient id="paint39_linear_572_2220" x1="89.4727" y1="28.4766" x2="89.4727" y2="84.1992" gradientUnits="userSpaceOnUse">
<stop stop-color="#63567E"/>
<stop offset="1" stop-color="#6C6695"/>
</linearGradient>
<radialGradient id="paint40_radial_572_2220" cx="0" cy="0" r="1" gradientUnits="userSpaceOnUse" gradientTransform="translate(159.289 60.1366) rotate(-1.33642) scale(2.75422 37.5968)">
<stop stop-color="#62557A"/>
<stop offset="1" stop-color="#62557A" stop-opacity="0"/>
</radialGradient>
<linearGradient id="paint41_linear_572_2220" x1="67.5204" y1="93.7907" x2="67.5204" y2="98.1576" gradientUnits="userSpaceOnUse">
<stop offset="0.320301" stop-color="#62557A" stop-opacity="0"/>
<stop offset="0.423766" stop-color="#62557A"/>
<stop offset="0.883131" stop-color="#62557A" stop-opacity="0.193762"/>
<stop offset="1" stop-color="#62557A" stop-opacity="0"/>
</linearGradient>
<linearGradient id="paint42_linear_572_2220" x1="10.2995" y1="65.7851" x2="14.3943" y2="65.7851" gradientUnits="userSpaceOnUse">
<stop offset="0.288462" stop-color="#62557A"/>
<stop offset="0.720716" stop-color="#62557A" stop-opacity="0.193762"/>
<stop offset="1" stop-color="#62557A" stop-opacity="0"/>
</linearGradient>
<linearGradient id="paint43_linear_572_2220" x1="89.4727" y1="103.184" x2="89.4727" y2="101.118" gradientUnits="userSpaceOnUse">
<stop offset="0.234043" stop-color="#736DA0"/>
<stop offset="0.648936" stop-color="#736DA0" stop-opacity="0.223404"/>
<stop offset="1" stop-color="#736DA0" stop-opacity="0"/>
</linearGradient>
<linearGradient id="paint44_linear_572_2220" x1="168.148" y1="62.0451" x2="166.139" y2="62.0451" gradientUnits="userSpaceOnUse">
<stop offset="0.272571" stop-color="#736DA0"/>
<stop offset="0.792317" stop-color="#736DA0" stop-opacity="0.223404"/>
<stop offset="1" stop-color="#736DA0" stop-opacity="0"/>
</linearGradient>
<radialGradient id="paint45_radial_572_2220" cx="0" cy="0" r="1" gradientUnits="userSpaceOnUse" gradientTransform="translate(19.9204 57.8918) rotate(-90) scale(22.2046 2.46895)">
<stop stop-color="#736DA0"/>
<stop offset="1" stop-color="#736DA0" stop-opacity="0"/>
</radialGradient>
<radialGradient id="paint46_radial_572_2220" cx="0" cy="0" r="1" gradientUnits="userSpaceOnUse" gradientTransform="translate(19.9204 88.0389) rotate(-90) scale(29.1039 2.09571)">
<stop offset="0.383361" stop-color="#736DA0"/>
<stop offset="1" stop-color="#736DA0" stop-opacity="0"/>
</radialGradient>
<radialGradient id="paint47_radial_572_2220" cx="0" cy="0" r="1" gradientUnits="userSpaceOnUse" gradientTransform="translate(27.1365 40.5778) rotate(-18.1153) scale(15.0211 8.05358)">
<stop stop-color="#736DA0"/>
<stop offset="1" stop-color="#736DA0" stop-opacity="0"/>
</radialGradient>
<radialGradient id="paint48_radial_572_2220" cx="0" cy="0" r="1" gradientUnits="userSpaceOnUse" gradientTransform="translate(151.088 36.0686) rotate(-1.39394) scale(7.80484 1.99716)">
<stop stop-color="#736DA0"/>
<stop offset="1" stop-color="#736DA0" stop-opacity="0"/>
</radialGradient>
<radialGradient id="paint49_radial_572_2220" cx="0" cy="0" r="1" gradientUnits="userSpaceOnUse" gradientTransform="translate(165.949 94.6576) rotate(180) scale(11.9779 25.1395)">
<stop offset="0.610489" stop-color="#6C6695"/>
<stop offset="1" stop-color="#6C6695" stop-opacity="0"/>
</radialGradient>
<radialGradient id="paint50_radial_572_2220" cx="0" cy="0" r="1" gradientUnits="userSpaceOnUse" gradientTransform="translate(13.7198 94.6576) scale(13.4198 28.1657)">
<stop offset="0.54103" stop-color="#6C6695"/>
<stop offset="1" stop-color="#6C6695" stop-opacity="0"/>
</radialGradient>
<radialGradient id="paint51_radial_572_2220" cx="0" cy="0" r="1" gradientUnits="userSpaceOnUse" gradientTransform="translate(24.3978 91.3322) rotate(-37.6964) scale(6.45538)">
<stop offset="0.494792" stop-color="#62557A"/>
<stop offset="1" stop-color="#62557A" stop-opacity="0"/>
</radialGradient>
<radialGradient id="paint52_radial_572_2220" cx="0" cy="0" r="1" gradientUnits="userSpaceOnUse" gradientTransform="translate(156.529 91.4959) rotate(-124.795) scale(5.4685 5.4685)">
<stop offset="0.614078" stop-color="#62557A"/>
<stop offset="1" stop-color="#62557A" stop-opacity="0"/>
</radialGradient>
<radialGradient id="paint53_radial_572_2220" cx="0" cy="0" r="1" gradientUnits="userSpaceOnUse" gradientTransform="translate(160.398 82.6911) scale(1.87787 11.3003)">
<stop stop-color="#62557A"/>
<stop offset="0.621455" stop-color="#62557A" stop-opacity="0.273237"/>
<stop offset="1" stop-color="#62557A" stop-opacity="0"/>
</radialGradient>
<linearGradient id="paint54_linear_572_2220" x1="68.7305" y1="61.5234" x2="61.6553" y2="72.7734" gradientUnits="userSpaceOnUse">
<stop stop-color="#FF416D"/>
<stop offset="1" stop-color="#FF3A66"/>
</linearGradient>
<linearGradient id="paint55_linear_572_2220" x1="61.6553" y1="61.5234" x2="61.6553" y2="63.2026" gradientUnits="userSpaceOnUse">
<stop stop-color="#FD4843"/>
<stop offset="1" stop-color="#FD4843" stop-opacity="0"/>
</linearGradient>
<linearGradient id="paint56_linear_572_2220" x1="44.7144" y1="68.7266" x2="46.3725" y2="68.7266" gradientUnits="userSpaceOnUse">
<stop stop-color="#FD4843"/>
<stop offset="1" stop-color="#FD4843" stop-opacity="0"/>
</linearGradient>
<linearGradient id="paint57_linear_572_2220" x1="46.4715" y1="63.6548" x2="47.0647" y2="64.4458" gradientUnits="userSpaceOnUse">
<stop stop-color="#FD4843"/>
<stop offset="1" stop-color="#FD4843" stop-opacity="0"/>
</linearGradient>
<linearGradient id="paint58_linear_572_2220" x1="61.6553" y1="72.7734" x2="61.6553" y2="71.2557" gradientUnits="userSpaceOnUse">
<stop offset="0.567708" stop-color="#FF4075"/>
<stop offset="1" stop-color="#FF4075" stop-opacity="0"/>
</linearGradient>
<linearGradient id="paint59_linear_572_2220" x1="78.5962" y1="70.0591" x2="77.4834" y2="70.0591" gradientUnits="userSpaceOnUse">
<stop offset="0.567708" stop-color="#FF4075"/>
<stop offset="1" stop-color="#FF4075" stop-opacity="0"/>
</linearGradient>
<linearGradient id="paint60_linear_572_2220" x1="78.5962" y1="63.5631" x2="76.4743" y2="65.2028" gradientUnits="userSpaceOnUse">
<stop offset="0.567708" stop-color="#FF4075"/>
<stop offset="1" stop-color="#FF4075" stop-opacity="0"/>
</linearGradient>
<linearGradient id="paint61_linear_572_2220" x1="93.5156" y1="39.7266" x2="89.4727" y2="50.9766" gradientUnits="userSpaceOnUse">
<stop stop-color="#4794D7"/>
<stop offset="1" stop-color="#4482CA"/>
</linearGradient>
<linearGradient id="paint62_linear_572_2220" x1="89.4727" y1="39.7266" x2="89.4727" y2="41.0439" gradientUnits="userSpaceOnUse">
<stop stop-color="#4580C4"/>
<stop offset="1" stop-color="#4580C4" stop-opacity="0"/>
</linearGradient>
<linearGradient id="paint63_linear_572_2220" x1="72.5317" y1="46.5622" x2="73.9848" y2="46.5622" gradientUnits="userSpaceOnUse">
<stop offset="0.552083" stop-color="#4580C4"/>
<stop offset="1" stop-color="#4580C4" stop-opacity="0"/>
</linearGradient>
<linearGradient id="paint64_linear_572_2220" x1="74.179" y1="40.7812" x2="75.805" y2="42.8247" gradientUnits="userSpaceOnUse">
<stop stop-color="#4580C4"/>
<stop offset="0.771469" stop-color="#4580C4" stop-opacity="0"/>
</linearGradient>
<linearGradient id="paint65_linear_572_2220" x1="89.4727" y1="51.3744" x2="89.4727" y2="49.5171" gradientUnits="userSpaceOnUse">
<stop stop-color="#4C9CD9"/>
<stop offset="1" stop-color="#4C9CD9" stop-opacity="0"/>
</linearGradient>
<linearGradient id="paint66_linear_572_2220" x1="106.752" y1="48.4158" x2="104.758" y2="48.4158" gradientUnits="userSpaceOnUse">
<stop stop-color="#4C9CD9"/>
<stop offset="1" stop-color="#4C9CD9" stop-opacity="0"/>
</linearGradient>
<linearGradient id="paint67_linear_572_2220" x1="121.289" y1="15.293" x2="117.378" y2="28.4766" gradientUnits="userSpaceOnUse">
<stop stop-color="#4EDC8E"/>
<stop offset="1" stop-color="#54C877"/>
</linearGradient>
<linearGradient id="paint68_linear_572_2220" x1="117.378" y1="16.7127" x2="117.378" y2="18.6428" gradientUnits="userSpaceOnUse">
<stop stop-color="#3DB669"/>
<stop offset="1" stop-color="#3DB669" stop-opacity="0"/>
</linearGradient>
<linearGradient id="paint69_linear_572_2220" x1="100.437" y1="23.6839" x2="102.06" y2="23.6839" gradientUnits="userSpaceOnUse">
<stop stop-color="#3DB669"/>
<stop offset="1" stop-color="#3DB669" stop-opacity="0"/>
</linearGradient>
<linearGradient id="paint70_linear_572_2220" x1="102.652" y1="18.4227" x2="103.835" y2="20.0668" gradientUnits="userSpaceOnUse">
<stop stop-color="#3DB669"/>
<stop offset="0.666419" stop-color="#3DB669" stop-opacity="0.223739"/>
<stop offset="1" stop-color="#3DB669" stop-opacity="0"/>
</linearGradient>
<linearGradient id="paint71_linear_572_2220" x1="117.378" y1="29.9642" x2="117.378" y2="27.0304" gradientUnits="userSpaceOnUse">
<stop stop-color="#59E79A"/>
<stop offset="1" stop-color="#59E79A" stop-opacity="0"/>
</linearGradient>
<linearGradient id="paint72_linear_572_2220" x1="134.742" y1="24.255" x2="133.198" y2="24.255" gradientUnits="userSpaceOnUse">
<stop stop-color="#59E79A"/>
<stop offset="1" stop-color="#59E79A" stop-opacity="0"/>
</linearGradient>
<linearGradient id="paint73_linear_572_2220" x1="135.089" y1="19.7138" x2="132.387" y2="21.9658" gradientUnits="userSpaceOnUse">
<stop stop-color="#59E79A"/>
<stop offset="1" stop-color="#59E79A" stop-opacity="0"/>
</linearGradient>
<linearGradient id="paint74_linear_572_2220" x1="103.535" y1="125.684" x2="83.8477" y2="146.206" gradientUnits="userSpaceOnUse">
<stop stop-color="#DECBF4"/>
<stop offset="1" stop-color="#CCBFDC"/>
</linearGradient>
</defs>
</svg>
