<svg width="28" height="28" viewBox="0 0 28 28" fill="none" xmlns="http://www.w3.org/2000/svg">
<rect width="28" height="28" rx="14" fill="#EBEBEB"/>
<mask id="mask0_939_1011" style="mask-type:alpha" maskUnits="userSpaceOnUse" x="4" y="4" width="20" height="20">
<rect x="4" y="4" width="20" height="20" fill="#D9D9D9"/>
</mask>
<g mask="url(#mask0_939_1011)">
<path d="M11.9584 16.625L19.0209 9.5625C19.1875 9.39583 19.382 9.3125 19.6042 9.3125C19.8264 9.3125 20.0209 9.39583 20.1875 9.5625C20.3542 9.72917 20.4375 9.92708 20.4375 10.1562C20.4375 10.3854 20.3542 10.5833 20.1875 10.75L12.5417 18.4167C12.375 18.5833 12.1806 18.6667 11.9584 18.6667C11.7361 18.6667 11.5417 18.5833 11.375 18.4167L7.7917 14.8333C7.62503 14.6667 7.54517 14.4688 7.55211 14.2396C7.55906 14.0104 7.64586 13.8125 7.81253 13.6458C7.9792 13.4792 8.17711 13.3958 8.40628 13.3958C8.63545 13.3958 8.83336 13.4792 9.00003 13.6458L11.9584 16.625Z" fill="#555555"/>
</g>
</svg>
