<svg width="290" height="18" viewBox="0 0 290 18" fill="none" xmlns="http://www.w3.org/2000/svg">
<path d="M14.2559 17.664C13.6439 17.664 13.3379 17.43 13.3379 16.872V1.932C13.3379 1.392 13.6439 1.14 14.2559 1.14C14.8499 1.14 15.1559 1.392 15.1559 1.932V16.872C15.1559 17.43 14.8499 17.664 14.2559 17.664ZM5.61588 17.358C3.04188 17.358 0.539875 16.152 0.539875 12.858V5.838C0.539875 2.526 3.04188 1.338 5.61588 1.338C8.15388 1.338 10.6919 2.526 10.6919 5.838V12.858C10.6919 16.152 8.15388 17.358 5.61588 17.358ZM5.61588 15.702C7.28988 15.702 8.87388 14.928 8.87388 12.732V5.964C8.87388 3.75 7.28988 2.976 5.61588 2.976C3.92387 2.976 2.33988 3.75 2.33988 5.964V12.732C2.33988 14.928 3.92387 15.702 5.61588 15.702ZM32.2249 1.14C32.8009 1.14 33.0889 1.392 33.0889 1.932V16.872C33.0889 17.43 32.8189 17.664 32.2249 17.664C31.6309 17.664 31.3429 17.43 31.3429 16.872V1.932C31.3429 1.392 31.6489 1.14 32.2249 1.14ZM28.7329 1.23C29.2909 1.23 29.5969 1.464 29.5969 2.022V16.8C29.5969 17.358 29.3089 17.592 28.7329 17.592C28.1569 17.592 27.8509 17.358 27.8509 16.8V9.402H25.5829C25.0249 9.402 24.7369 9.096 24.7369 8.556C24.7369 8.016 25.0249 7.71 25.5829 7.71H27.8509V2.022C27.8509 1.464 28.1569 1.23 28.7329 1.23ZM23.0449 3.354V11.292L25.9249 15.864C26.1769 16.26 26.1409 16.62 25.7269 16.944C25.2409 17.358 24.7729 17.268 24.5569 16.908L22.1629 13.128L19.7509 16.908C19.5349 17.268 19.0669 17.358 18.5809 16.944C18.1669 16.62 18.1489 16.26 18.4009 15.864L21.2809 11.292V3.354H19.0489C18.5449 3.354 18.3469 3.102 18.3469 2.526C18.3469 1.968 18.5449 1.716 19.0489 1.716H25.2589C25.7629 1.716 25.9609 1.968 25.9609 2.526C25.9609 3.102 25.7629 3.354 25.2589 3.354H23.0449ZM54.9844 7.674H56.8744C57.3964 7.674 57.5944 7.962 57.5944 8.52C57.5944 9.096 57.3964 9.402 56.8744 9.402H54.9844V16.872C54.9844 17.43 54.6964 17.664 54.1024 17.664C53.5084 17.664 53.2024 17.43 53.2024 16.872V1.932C53.2024 1.392 53.5084 1.14 54.1024 1.14C54.6784 1.14 54.9844 1.392 54.9844 1.932V7.674ZM46.8664 3.354V11.22L50.8624 15.828C51.1684 16.17 51.0784 16.53 50.7544 16.89C50.2684 17.394 49.8904 17.322 49.5664 16.944L45.9844 12.768L42.3844 16.944C42.0604 17.322 41.6824 17.394 41.1964 16.89C40.8724 16.53 40.7824 16.17 41.0884 15.828L45.0844 11.22V3.354H41.7544C41.2504 3.354 41.0524 3.102 41.0524 2.544C41.0524 1.986 41.2504 1.734 41.7544 1.734H50.1964C50.7004 1.734 50.8984 1.986 50.8984 2.544C50.8984 3.12 50.7004 3.354 50.1964 3.354H46.8664ZM72.9535 13.038C72.3415 13.038 72.0355 12.804 72.0355 12.264V1.914C72.0355 1.374 72.3595 1.14 72.9535 1.14C73.5475 1.14 73.8535 1.374 73.8535 1.914V12.264C73.8535 12.804 73.5655 13.038 72.9535 13.038ZM68.3095 10.59L64.2055 7.728L60.0835 10.59C59.6875 10.86 59.2735 10.86 58.9315 10.374C58.6255 9.924 58.5895 9.474 59.0935 9.15L63.3055 6.234V2.202C63.3055 1.662 63.5935 1.428 64.2055 1.428C64.7995 1.428 65.1055 1.662 65.1055 2.202V6.252L69.2995 9.15C69.8035 9.474 69.7675 9.924 69.4615 10.374C69.1195 10.86 68.7055 10.86 68.3095 10.59ZM62.1895 16.008H73.5115C74.0155 16.008 74.2315 16.278 74.2315 16.836C74.2315 17.394 74.0155 17.682 73.5115 17.682H61.2895C60.6775 17.682 60.3895 17.394 60.3895 16.8V12.768C60.3895 12.228 60.6775 11.958 61.2715 11.958C61.8835 11.958 62.1895 12.228 62.1895 12.768V16.008ZM90.8145 17.664C90.2025 17.664 89.9145 17.43 89.9145 16.872V1.932C89.9145 1.392 90.2025 1.14 90.8145 1.14C91.4265 1.14 91.7145 1.392 91.7145 1.932V16.872C91.7145 17.43 91.4265 17.664 90.8145 17.664ZM82.2645 12.066C79.6905 12.066 77.2605 10.896 77.2605 7.89V5.586C77.2605 2.598 79.6905 1.428 82.2645 1.428C84.8205 1.428 87.2685 2.598 87.2685 5.586V7.89C87.2685 10.896 84.8205 12.066 82.2645 12.066ZM82.2645 10.41C83.8305 10.41 85.4685 9.744 85.4685 7.764V5.694C85.4685 3.732 83.8305 3.066 82.2645 3.066C80.6805 3.066 79.0605 3.732 79.0605 5.694V7.764C79.0605 9.744 80.6805 10.41 82.2645 10.41ZM88.2405 17.088H76.9725C76.4865 17.088 76.2525 16.818 76.2525 16.242C76.2525 15.666 76.4865 15.414 76.9725 15.414H88.2405C88.7265 15.414 88.9425 15.666 88.9425 16.242C88.9425 16.818 88.7265 17.088 88.2405 17.088ZM100.398 8.286L106.392 6.072V4.506H100.848C100.362 4.506 100.146 4.254 100.146 3.678C100.146 3.12 100.362 2.868 100.848 2.868H106.338V1.734C106.338 1.266 106.644 0.977999 107.292 0.977999C107.958 0.977999 108.246 1.266 108.246 1.734V2.868H113.736C114.24 2.868 114.456 3.12 114.456 3.678C114.456 4.272 114.24 4.506 113.736 4.506H108.192V6.072L114.204 8.286C114.654 8.466 114.69 8.916 114.456 9.42C114.204 9.942 113.862 9.978 113.358 9.78L107.292 7.548L101.226 9.78C100.722 9.978 100.398 9.942 100.146 9.42C99.894 8.916 99.948 8.466 100.398 8.286ZM99.966 11.508H114.654C115.14 11.508 115.356 11.76 115.356 12.336C115.356 12.912 115.14 13.164 114.654 13.164H108.228V17.052C108.228 17.61 107.922 17.844 107.328 17.844C106.716 17.844 106.428 17.61 106.428 17.052V13.164H99.966C99.48 13.164 99.246 12.912 99.246 12.336C99.246 11.76 99.48 11.508 99.966 11.508ZM131.291 1.14C131.885 1.14 132.191 1.374 132.191 1.914V10.068C132.191 10.626 131.903 10.842 131.291 10.842C130.679 10.842 130.373 10.626 130.373 10.068V6.666H127.295V6.936C127.295 9.24 125.171 10.41 122.471 10.41C119.771 10.41 117.647 9.24 117.647 6.936V4.884C117.647 2.562 119.771 1.41 122.471 1.41C125.171 1.41 127.295 2.562 127.295 4.884V4.974H130.373V1.914C130.373 1.374 130.697 1.14 131.291 1.14ZM125.495 6.702V5.118C125.495 3.75 124.271 2.994 122.471 2.994C120.653 2.994 119.447 3.75 119.447 5.118V6.702C119.447 8.052 120.653 8.808 122.471 8.808C124.271 8.808 125.495 8.052 125.495 6.702ZM119.411 11.598H131.345C131.939 11.598 132.173 11.85 132.173 12.426V16.944C132.173 17.484 131.867 17.736 131.273 17.736C130.661 17.736 130.373 17.484 130.373 16.944V13.272H119.411C118.907 13.272 118.673 12.984 118.673 12.444C118.673 11.886 118.907 11.598 119.411 11.598ZM135.814 4.326C135.814 2.22 137.128 1.446 139.054 1.446H146.704C148.648 1.446 149.944 2.22 149.944 4.326C149.944 6.432 148.648 7.224 146.686 7.224H139.054C137.128 7.224 135.814 6.432 135.814 4.326ZM137.56 4.326C137.56 5.172 138.082 5.586 139.09 5.586H146.686C147.676 5.586 148.198 5.172 148.198 4.326C148.198 3.48 147.676 3.066 146.686 3.066H139.09C138.082 3.066 137.56 3.48 137.56 4.326ZM150.196 9.852H135.562C135.076 9.852 134.842 9.654 134.842 9.078C134.842 8.502 135.076 8.286 135.562 8.286H150.196C150.7 8.286 150.916 8.502 150.916 9.078C150.916 9.654 150.7 9.852 150.196 9.852ZM149.512 17.682H136.714C136.138 17.682 135.886 17.43 135.886 16.836V14.334C135.886 13.74 136.138 13.506 136.714 13.506H148.072V12.3H136.606C136.12 12.3 135.886 12.066 135.886 11.58C135.886 11.022 136.12 10.86 136.606 10.86H148.936C149.548 10.86 149.8 11.112 149.8 11.724V13.974C149.8 14.586 149.548 14.964 148.954 14.964H137.614V16.242H149.512C150.016 16.242 150.25 16.44 150.25 16.944C150.25 17.484 150.016 17.682 149.512 17.682ZM172.146 4.776H173.874C174.378 4.776 174.594 5.064 174.594 5.622C174.594 6.198 174.378 6.486 173.874 6.486H172.146V9.852C172.146 10.392 171.876 10.626 171.246 10.626C170.652 10.626 170.346 10.392 170.346 9.852V1.914C170.346 1.374 170.67 1.14 171.246 1.14C171.858 1.14 172.146 1.374 172.146 1.914V4.776ZM167.844 2.526V9.132C167.844 9.708 167.556 9.96 166.98 9.96H159.168C158.592 9.96 158.304 9.708 158.304 9.132V2.526C158.304 1.932 158.592 1.68 159.168 1.68H166.98C167.556 1.68 167.844 1.932 167.844 2.526ZM160.086 8.358H166.062V3.282H160.086V8.358ZM160.104 11.346H171.3C171.912 11.346 172.146 11.58 172.146 12.192V16.818C172.146 17.394 171.912 17.664 171.336 17.664H160.05C159.492 17.664 159.24 17.394 159.24 16.818V12.192C159.24 11.58 159.492 11.346 160.104 11.346ZM160.986 16.044H170.4V12.948H160.986V16.044ZM184.283 3.354H182.123C181.619 3.354 181.403 3.066 181.403 2.508C181.403 1.95 181.619 1.662 182.123 1.662H185.183C185.957 1.662 186.281 2.13 186.101 2.904L185.669 4.974H188.891V1.914C188.891 1.374 189.215 1.14 189.809 1.14C190.403 1.14 190.709 1.374 190.709 1.914V11.346C190.709 11.886 190.421 12.12 189.809 12.12C189.197 12.12 188.891 11.886 188.891 11.346V6.666H185.327L184.715 9.582C184.607 10.068 184.229 10.176 183.707 10.068C183.221 9.978 182.933 9.69 183.041 9.24L184.283 3.354ZM177.677 8.988L178.955 3.354H176.723C176.219 3.354 176.003 3.066 176.003 2.508C176.003 1.95 176.219 1.662 176.723 1.662H179.891C180.683 1.662 180.989 2.148 180.791 2.904L179.297 9.402C179.189 9.888 178.793 9.96 178.271 9.834C177.785 9.708 177.569 9.42 177.677 8.988ZM185.381 13.632L191.177 16.008C191.699 16.206 191.753 16.602 191.555 17.088C191.285 17.682 190.907 17.754 190.493 17.574L184.499 15.126L178.487 17.574C178.055 17.754 177.677 17.682 177.407 17.088C177.209 16.602 177.263 16.206 177.803 16.008L183.581 13.632V11.796C183.581 11.274 183.887 11.04 184.481 11.04C185.093 11.04 185.381 11.274 185.381 11.796V13.632ZM212.874 4.776H214.584C215.088 4.776 215.304 5.064 215.304 5.622C215.304 6.198 215.088 6.486 214.584 6.486H212.874V9.69C212.874 10.23 212.604 10.464 211.974 10.464C211.38 10.464 211.074 10.23 211.074 9.69V1.914C211.074 1.374 211.398 1.14 211.974 1.14C212.586 1.14 212.874 1.374 212.874 1.914V4.776ZM208.842 8.916C208.842 9.492 208.626 9.726 208.122 9.726H199.842C199.284 9.726 199.032 9.474 199.032 8.898V2.256C199.032 1.716 199.338 1.464 199.95 1.464C200.562 1.464 200.868 1.716 200.868 2.256V8.088H208.122C208.626 8.088 208.842 8.34 208.842 8.916ZM200.832 11.166H212.028C212.64 11.166 212.874 11.4 212.874 12.012V16.836C212.874 17.412 212.64 17.664 212.064 17.664H200.778C200.22 17.664 199.968 17.412 199.968 16.836V12.012C199.968 11.4 200.22 11.166 200.832 11.166ZM201.714 16.062H211.128V12.768H201.714V16.062ZM230.537 1.14C231.131 1.14 231.437 1.392 231.437 1.932V16.872C231.437 17.43 231.131 17.664 230.537 17.664C229.943 17.664 229.637 17.43 229.637 16.872V12.858H224.489C223.949 12.858 223.643 12.534 223.643 11.994C223.643 11.454 223.949 11.148 224.489 11.148H229.637V7.026H226.127C225.587 7.026 225.281 6.702 225.281 6.162C225.281 5.622 225.587 5.316 226.127 5.316H229.637V1.932C229.637 1.392 229.943 1.14 230.537 1.14ZM217.055 1.716H224.975C225.785 1.716 226.181 2.364 225.749 3.282L219.287 16.62C219.053 17.124 218.675 17.25 218.135 16.98C217.685 16.764 217.541 16.404 217.793 15.882L223.805 3.354H217.055C216.569 3.354 216.335 3.12 216.335 2.544C216.335 1.95 216.569 1.716 217.055 1.716ZM248.272 10.77H235.96C235.348 10.77 235.096 10.518 235.096 9.906V2.328C235.096 1.77 235.366 1.5 235.96 1.5C236.536 1.5 236.86 1.77 236.86 2.328V4.83H247.372V2.328C247.372 1.77 247.678 1.5 248.236 1.5C248.812 1.5 249.136 1.77 249.136 2.328V9.906C249.136 10.518 248.884 10.77 248.272 10.77ZM247.372 9.15V6.45H236.86V9.15H247.372ZM243.016 15.54H249.478C249.964 15.54 250.18 15.792 250.18 16.368C250.18 16.944 249.964 17.196 249.478 17.196H234.79C234.304 17.196 234.07 16.944 234.07 16.368C234.07 15.792 234.304 15.54 234.79 15.54H241.234V12.426C241.234 11.904 241.522 11.652 242.134 11.652C242.746 11.652 243.016 11.904 243.016 12.426V15.54ZM266.295 1.14C266.871 1.14 267.159 1.392 267.159 1.932V16.872C267.159 17.43 266.889 17.664 266.295 17.664C265.701 17.664 265.413 17.43 265.413 16.872V1.932C265.413 1.392 265.719 1.14 266.295 1.14ZM262.803 1.23C263.361 1.23 263.667 1.464 263.667 2.022V16.8C263.667 17.358 263.379 17.592 262.803 17.592C262.227 17.592 261.921 17.358 261.921 16.8V9.402H259.527C258.987 9.402 258.681 9.096 258.681 8.556C258.681 8.016 258.987 7.71 259.527 7.71H261.921V2.022C261.921 1.464 262.227 1.23 262.803 1.23ZM256.809 2.13V10.77L260.265 15.936C260.499 16.296 260.409 16.692 259.959 16.998C259.491 17.304 259.059 17.304 258.789 16.872L255.909 12.606L253.011 16.872C252.759 17.304 252.309 17.304 251.859 16.998C251.409 16.692 251.319 16.296 251.553 15.936L255.009 10.77V2.13C255.009 1.59 255.297 1.338 255.909 1.338C256.503 1.338 256.809 1.59 256.809 2.13ZM280.556 10.896H274.814C271.718 10.896 270.44 8.718 270.44 6.288C270.44 3.84 271.718 1.68 274.814 1.68H280.556C283.652 1.68 284.948 3.84 284.948 6.288C284.948 8.718 283.652 10.896 280.556 10.896ZM280.412 3.318H274.976C272.708 3.318 272.186 4.92 272.186 6.288C272.186 7.656 272.708 9.258 274.976 9.258H280.412C282.662 9.258 283.184 7.656 283.184 6.288C283.184 4.92 282.662 3.318 280.412 3.318ZM281.6 15.54H285.056C285.542 15.54 285.758 15.792 285.758 16.368C285.758 16.944 285.542 17.196 285.056 17.196H270.368C269.882 17.196 269.648 16.944 269.648 16.368C269.648 15.792 269.882 15.54 270.368 15.54H273.788V12.732C273.788 12.192 274.076 11.958 274.688 11.958C275.3 11.958 275.588 12.192 275.588 12.732V15.54H279.8V12.732C279.8 12.192 280.088 11.94 280.7 11.94C281.312 11.94 281.6 12.192 281.6 12.732V15.54ZM288.715 13.47C288.103 13.47 287.869 13.2 287.869 12.66V2.4C287.869 1.86 288.103 1.608 288.715 1.608C289.327 1.608 289.561 1.86 289.561 2.4V12.66C289.561 13.2 289.327 13.47 288.715 13.47ZM288.715 17.232C288.103 17.232 287.869 16.98 287.869 16.422V15.738C287.869 15.18 288.103 14.928 288.715 14.928C289.327 14.928 289.561 15.18 289.561 15.738V16.422C289.561 16.98 289.327 17.232 288.715 17.232Z" fill="#F9F9F9"/>
</svg>
