<svg width="144" height="104" viewBox="0 0 144 104" fill="none" xmlns="http://www.w3.org/2000/svg">
<path d="M92.9667 50.8167C97.348 50.4887 99.2333 50.2337 100.041 49.5595L93.1463 49.851L92.9667 47.373L100.472 47.0632C100.275 46.5713 99.79 46.4437 98.7485 46.4437C97.6712 46.4437 96.4322 46.5166 93.6849 46.8081L93.1463 43.5466C95.8037 43.2186 98.3894 43.0182 100.347 43.0182C103.633 43.0182 105.141 43.911 105.446 46.134H106.703V43H111.461V54.8617H106.703V50.2519H104.836C103.435 52.9121 99.8259 54.0965 93.5054 54.0965L92.9667 50.8167ZM94.0441 56.6474C96.7734 56.1372 98.8742 55.463 101.442 54.2787H104.602C107.17 55.463 109.271 56.1372 112 56.6474L110.599 60C107.906 59.7267 105.302 59.0707 103.022 58.0139C100.742 59.0707 98.138 59.7267 95.4446 60L94.0441 56.6474Z" fill="white"/>
<path d="M87.5419 43H91.5281V59.9089H87.5419V43ZM72.5846 53.5498C72.5846 50.1972 72.7821 46.9357 73.249 43.4009L77.9714 43.5831C77.5943 47.6463 77.4327 50.4159 77.4327 53.3676C77.4327 54.2422 77.738 54.716 78.6537 54.716C79.6054 54.716 80.2159 54.6431 82.1192 54.4427L82.2988 58.7792C80.9521 59.089 78.6717 59.3258 77.0018 59.3258C73.5722 59.3258 72.5846 58.0322 72.5846 53.5498ZM80.3057 52.821V48.448H83.035V43H86.8955V59.8178H83.035V52.821H80.3057Z" fill="white"/>
<path d="M53.8186 53.8232H58.6667V54.4609H66.5673V53.8232H71.4154V59.9089H53.8186V53.8232ZM52.4719 49.6506C52.4719 47.5188 52.7592 45.0954 53.1362 43.2186L57.7509 43.4009C57.4098 45.8607 57.302 46.717 57.302 47.9196C57.302 48.7942 57.5534 49.0493 58.6128 49.0493C59.5286 49.0493 60.0493 49.0129 62.0065 48.8671L62.186 52.9303C60.3007 53.1672 58.6128 53.2765 56.889 53.2765C53.4595 53.2765 52.4719 52.4566 52.4719 49.6506ZM58.6667 57.5402H66.5673V56.7385H58.6667V57.5402ZM62.7427 53.1308V43H66.693V46.134H67.4292V43H71.4154V53.3676H67.4292V49.687H66.693V53.1308H62.7427Z" fill="white"/>
<path d="M32 55.3539H51.7515V59.4536H32V55.3539ZM32.8619 54.3518C32.8619 47.0999 33.3826 45.1867 36.0401 43.5469H41.7321C41.1396 44.1846 40.6368 44.7677 40.2418 45.3507C41.8937 45.0045 43.402 44.8406 44.8385 44.8406C49.0581 44.8406 50.8896 46.2982 50.8896 49.6691V54.3518L45.3233 54.534V51.3089C45.3233 49.9424 44.7308 49.414 43.1865 49.414C41.6962 49.414 39.9545 49.6144 38.6257 49.9424C38.4821 51.1814 38.4282 52.6573 38.4282 54.534L32.8619 54.3518Z" fill="white"/>
<path d="M125.231 39.8466C116.31 39.0674 115.612 39.544 113.368 48.2306C114.148 39.3103 113.671 38.6119 104.984 36.3684C113.905 37.1477 114.603 36.671 116.847 27.9845C116.067 36.9048 116.544 37.6032 125.231 39.8466Z" fill="white"/>
</svg>
