<svg width="35" height="44" viewBox="0 0 35 44" fill="none" xmlns="http://www.w3.org/2000/svg">
<rect x="6" y="8" width="23" height="21" fill="#F9F9F9"/>
<path d="M17.3333 28.1667C19.3556 28.1667 21.1792 27.6701 22.8042 26.6771C24.4292 25.684 25.7111 24.375 26.65 22.75C25.3861 21.7028 23.9597 20.8993 22.3708 20.3396C20.7819 19.7799 19.1028 19.5 17.3333 19.5C15.5639 19.5 13.8847 19.7799 12.2958 20.3396C10.7069 20.8993 9.28056 21.7028 8.01667 22.75C8.95556 24.375 10.2375 25.684 11.8625 26.6771C13.4875 27.6701 15.3111 28.1667 17.3333 28.1667ZM17.3333 17.3333C18.525 17.3333 19.5451 16.909 20.3937 16.0604C21.2424 15.2118 21.6667 14.1917 21.6667 13C21.6667 11.8083 21.2424 10.7882 20.3937 9.93958C19.5451 9.09097 18.525 8.66667 17.3333 8.66667C16.1417 8.66667 15.1215 9.09097 14.2729 9.93958C13.4243 10.7882 13 11.8083 13 13C13 14.1917 13.4243 15.2118 14.2729 16.0604C15.1215 16.909 16.1417 17.3333 17.3333 17.3333ZM17.3333 43.3333C11.5194 38.3861 7.17708 33.791 4.30625 29.5479C1.43542 25.3049 0 21.3778 0 17.7667C0 12.35 1.74236 8.03472 5.22708 4.82083C8.71181 1.60694 12.7472 0 17.3333 0C21.9194 0 25.9549 1.60694 29.4396 4.82083C32.9243 8.03472 34.6667 12.35 34.6667 17.7667C34.6667 21.3778 33.2312 25.3049 30.3604 29.5479C27.4896 33.791 23.1472 38.3861 17.3333 43.3333Z" fill="#333333"/>
</svg>
