<svg width="30" height="125" viewBox="0 0 30 125" fill="none" xmlns="http://www.w3.org/2000/svg">
<path fill-rule="evenodd" clip-rule="evenodd" d="M29.9999 2C29.9999 0.895431 29.1045 0 27.9999 0L1.99994 0C0.89537 0 -6.10352e-05 0.895431 -6.10352e-05 2C-6.10352e-05 3.10457 0.895369 4 1.99994 4L25.9999 4L25.9999 28C25.9999 29.1046 26.8954 30 27.9999 30C29.1045 30 29.9999 29.1046 29.9999 28L29.9999 2Z" fill="#F9F9F9"/>
<path fill-rule="evenodd" clip-rule="evenodd" d="M27.9999 125C29.1045 125 29.9999 124.104 29.9999 123L29.9999 96.9999C29.9999 95.8953 29.1045 94.9999 27.9999 94.9999C26.8954 94.9999 25.9999 95.8953 25.9999 96.9999L25.9999 121L1.99994 121C0.89537 121 -6.10352e-05 121.895 -6.10352e-05 123C-6.10352e-05 124.104 0.895369 125 1.99994 125L27.9999 125Z" fill="#F9F9F9"/>
</svg>
