<svg width="312" height="166" viewBox="0 0 312 166" fill="none" xmlns="http://www.w3.org/2000/svg">
<path d="M48 18.3709C27.5563 24.9958 26.4589 26.7028 29.6291 48C23.0042 27.5563 21.2972 26.4589 0 29.6291C20.4437 23.0042 21.5411 21.2972 18.3709 0C24.9958 20.4437 26.7028 21.5411 48 18.3709Z" fill="white"/>
<path d="M303.872 138.632C282.463 136.762 280.787 137.906 275.402 158.753C277.273 137.345 276.129 135.669 255.281 130.284C276.69 132.155 278.366 131.01 283.75 110.163C281.88 131.571 283.024 133.248 303.872 138.632Z" fill="white"/>
<path d="M116.591 80.5412V95.9702H47.5915V80.5412H116.591ZM94.1047 37.9702L116.146 71.2516H91.3901L82.0307 55.7014L72.6714 71.2516H47.9561L69.9972 37.9702H94.0642H94.1047Z" fill="white"/>
<path d="M154.559 51.4295V65.8183H118.676V37.9702H138.692V51.389H154.559V51.4295ZM118.676 68.0817H138.692V72.0023H167.659V68.0817H187.676V95.9702H118.676V68.0817ZM138.692 84.6531H167.659V81.7026H138.692V84.6531ZM187.676 65.8183H173.192V59.1493H171.117V65.8183H156.634V37.9702H171.117V45.4476H173.192V37.9702H187.676V65.8183Z" fill="white"/>
<path d="M258.433 67.0308H189.433V58.9472H258.433V67.0308ZM190.88 37.9702H257.068V45.5688H250.04V49.2873H257.068V56.8859H190.88V49.2873H197.825V45.5688H190.88V37.9702ZM190.88 79.3988H232.511V77.1354H190.88V69.4559H257.068V86.0273H215.437V88.2908H257.068V95.9702H190.88V79.3988ZM218.124 49.2873H229.7V45.5688H218.124V49.2873Z" fill="white"/>
<path d="M88.4411 137.1C88.4411 138.84 89.6811 139.24 91.3011 139.24C92.1811 139.24 93.5611 139.06 93.5611 137.88C93.5611 136.98 92.9011 136.84 90.4411 136.24C90.2011 136.18 89.9411 136.1 89.6411 136.04C86.6411 135.3 83.0211 134.52 83.0211 131.4C83.0211 127.38 86.7211 126.1 90.6211 126.1C94.7011 126.1 98.4611 127.46 98.4811 131.44H92.8811C93.0011 130.16 91.6811 129.7 90.6011 129.7C89.8611 129.7 88.6411 129.86 88.6411 130.76C88.6411 131.58 90.2611 131.9 92.0811 132.3L93.9411 132.74C96.5611 133.34 99.4811 134.5 99.4811 137.36C99.4811 141.54 95.0011 142.88 90.7811 142.88C88.6811 142.88 82.5211 142.22 82.5211 137.1H88.4411ZM100.875 142.6V130.06H106.135L106.335 131.12H106.395C107.495 130.04 108.935 129.66 111.235 129.66C113.895 129.66 116.315 131.04 116.315 133.92V142.6H110.675V135.98C110.675 134.52 110.455 133.5 108.795 133.5C107.815 133.5 106.535 134.28 106.535 136.3V142.6H100.875ZM132.696 135.72V142.6H127.436L127.236 141.84H127.176C125.836 142.66 124.296 142.9 122.476 142.9C119.676 142.9 117.716 141.78 117.716 139.2C117.716 135.28 122.716 134.82 127.036 134.58V134.4C127.036 133.12 126.156 132.82 125.256 132.82C123.556 132.82 123.456 133.54 123.456 134.14H118.256C118.336 130.6 121.976 129.66 125.416 129.66C131.776 129.66 132.696 132.48 132.696 135.72ZM127.036 138.44V137.32C126.396 137.4 125.736 137.5 124.916 137.68C123.676 137.96 123.016 138.18 123.016 139.02C123.016 139.68 123.556 139.94 124.596 139.94C125.836 139.94 127.036 139.24 127.036 138.44ZM134.703 146V130.06H140.163L140.383 131.08H140.443C141.243 130.28 142.683 129.66 144.303 129.66C149.283 129.66 150.423 132.7 150.423 136.38C150.423 140.2 148.603 142.82 144.383 142.82C142.043 142.82 141.103 142.34 140.223 141.7H140.183V146H134.703ZM140.183 136.2V136.58C140.183 138.46 140.863 139.34 142.443 139.34C143.703 139.34 144.743 138.52 144.743 136.58V136.2C144.743 134.28 143.783 133.44 142.443 133.44C140.863 133.44 140.183 134.28 140.183 136.2ZM151.832 146V130.06H157.292L157.512 131.08H157.572C158.372 130.28 159.812 129.66 161.432 129.66C166.412 129.66 167.552 132.7 167.552 136.38C167.552 140.2 165.732 142.82 161.512 142.82C159.172 142.82 158.232 142.34 157.352 141.7H157.312V146H151.832ZM157.312 136.2V136.58C157.312 138.46 157.992 139.34 159.572 139.34C160.832 139.34 161.872 138.52 161.872 136.58V136.2C161.872 134.28 160.912 133.44 159.572 133.44C157.992 133.44 157.312 134.28 157.312 136.2ZM174.641 125.8V142.6H168.961V125.8H174.641ZM191.017 135.72V142.6H185.757L185.557 141.84H185.497C184.157 142.66 182.617 142.9 180.797 142.9C177.997 142.9 176.037 141.78 176.037 139.2C176.037 135.28 181.037 134.82 185.357 134.58V134.4C185.357 133.12 184.477 132.82 183.577 132.82C181.877 132.82 181.777 133.54 181.777 134.14H176.577C176.657 130.6 180.297 129.66 183.737 129.66C190.097 129.66 191.017 132.48 191.017 135.72ZM185.357 138.44V137.32C184.717 137.4 184.057 137.5 183.237 137.68C181.997 137.96 181.337 138.18 181.337 139.02C181.337 139.68 181.877 139.94 182.917 139.94C184.157 139.94 185.357 139.24 185.357 138.44ZM202.523 137.84H207.363C207.003 141.94 203.903 142.9 200.223 142.9C195.683 142.9 192.423 141.64 192.423 136.3C192.423 131.42 195.743 129.66 200.223 129.66C204.183 129.66 207.003 131.06 207.343 134.78H202.623C202.463 133.82 201.763 133.12 200.223 133.12C198.223 133.12 197.523 134.04 197.523 136.08V136.38C197.523 138.44 198.343 139.4 200.223 139.4C201.563 139.4 202.503 138.98 202.523 137.84ZM218.186 138.5H223.246C222.426 142.04 219.766 142.9 215.966 142.9C211.426 142.9 208.166 141.64 208.166 136.3C208.166 131.42 211.486 129.66 215.966 129.66C220.446 129.66 223.406 131.62 223.486 136.3C223.486 136.72 223.446 137.22 223.406 137.6H213.366C213.646 139.02 214.486 139.62 216.106 139.62C217.106 139.62 218.066 139.28 218.186 138.5ZM215.966 133.12C214.426 133.12 213.646 133.54 213.366 134.76H218.366C218.126 133.64 217.466 133.12 215.966 133.12Z" fill="#F9F9F9"/>
</svg>
